<?xml version="1.0" standalone="no"?>
<!DOCTYPE svg PUBLIC "-//W3C//DTD SVG 1.1//EN" "http://www.w3.org/Graphics/SVG/1.1/DTD/svg11.dtd" >
<svg xmlns="http://www.w3.org/2000/svg" xmlns:xlink="http://www.w3.org/1999/xlink" version="1.1">
<metadata>
Created by FontForge 20200427 at Thu Aug 29 04:16:43 2019
 By www
Copyright (c) 2019 by Khurasan. All rights reserved.
</metadata>
<defs>
<font id="HappySchool" horiz-adv-x="556" >
  <font-face 
    font-family="Happy School"
    font-weight="400"
    font-stretch="normal"
    units-per-em="1000"
    panose-1="0 0 0 0 0 0 0 0 0 0"
    ascent="800"
    descent="-200"
    x-height="591"
    cap-height="749"
    bbox="9.47826 -264.065 2256 809.08"
    underline-thickness="50"
    underline-position="-100"
    unicode-range="U+000D-E00A"
  />
<missing-glyph horiz-adv-x="298" 
 />
    <glyph glyph-name="o_o" unicode="oo" horiz-adv-x="1252" 
d="M672 514q22 53 62 90.5t89 58.5t102 24.5t102.5 -12t91 -51t65.5 -92.5q22 -53 27 -114.5t-6.5 -122.5t-37.5 -117t-66.5 -98t-93.5 -65t-118 -17q-57 5 -101.5 31t-75.5 67t-49 92.5t-23 107.5t3 112t29 106zM821 383q-12 -59 -1.5 -100.5t32.5 -64t52 -25t57 16t47 59
t23 104.5q1 41 -12 68t-34 41t-46.5 14.5t-49.5 -12t-42.5 -38t-25.5 -63.5zM573 320q0 -65 -22.5 -117.5t-59.5 -91t-84 -61t-96.5 -28.5t-97.5 6.5t-86 44t-62 84t-26 126.5q-2 45 8.5 89t33.5 83q35 58 91 96t131 40q51 1 100 -17t87.5 -52.5t61 -85.5t21.5 -116z
M378 305q5 42 -6 69.5t-30 41t-42 13t-43 -15t-34 -42.5t-14 -70q0 -38 11.5 -61.5t29 -34.5t38.5 -9.5t40 14.5t32.5 37t17.5 58z" />
    <glyph glyph-name="p_p" unicode="pp" horiz-adv-x="1118" 
d="M751 583q76 14 135 -4.5t100.5 -57t65 -93t27.5 -112.5t-12 -115t-52.5 -101t-95 -70.5t-139.5 -23.5q2 -35 1.5 -72t-2.5 -73q-2 -23 -12.5 -39.5t-45.5 -22.5q-19 -3 -40.5 -1.5t-40 9t-32 21t-17.5 33.5q-5 23 -5.5 64t0.5 95q4 134 4 266.5t-2 270.5q0 4 -0.5 17
t4 27.5t17.5 27.5t41 19q37 8 57 -1t30 -23q5 -7 7.5 -14t4.5 -13q2 -7 2 -13v-1zM778 202q42 0 69.5 17.5t40.5 42.5t11.5 53.5t-16.5 52.5t-44 38t-72 11q3 -49 6 -100t5 -115zM175 581q46 8 91 5.5t91 -22.5q71 -29 113 -79.5t56.5 -108.5t2 -118.5t-50 -110t-100 -83
t-147.5 -37.5q2 -69 3 -115.5t2 -50.5q2 -13 -9.5 -23t-30.5 -16.5t-42.5 -7.5t-44.5 3.5t-37.5 16.5t-21.5 32t-8 70t-5 115t-2.5 137.5t-0.5 137.5t0.5 115t0.5 70v15.5t5 25t18.5 25.5t40.5 17q29 5 46.5 0.5t29.5 -13.5zM223 198q35 0 61.5 14t40.5 35t16 45.5t-11 45.5
t-42.5 35t-76.5 15q3 -46 6.5 -92.5t5.5 -97.5z" />
    <glyph glyph-name="m_m" unicode="mm" horiz-adv-x="2300" 
d="M1818 521q54 54 118 71.5t123 2t105.5 -62t67.5 -120.5q13 -46 18.5 -102t5.5 -110t-5 -99.5t-14 -69.5q-8 -20 -27.5 -30t-47.5 -10q-22 0 -40 4t-30.5 13t-18.5 24t-4 37q1 26 4 60.5t5.5 69.5t3.5 66t-1 50q-8 69 -31.5 101t-52 28.5t-55.5 -41.5t-41 -108
q-12 -60 -17 -124.5t-5 -127.5q1 -15 -6 -27t-19.5 -21t-28.5 -14t-33 -5q-34 0 -63.5 19.5t-34.5 64.5q-4 31 -5 81.5t-3 113.5q-2 67 -11.5 106.5t-24.5 54.5t-33.5 7t-37 -34t-36 -69.5t-30.5 -99.5q-6 -28 -10.5 -57.5t-7.5 -56.5t-4.5 -50t-1.5 -36q-1 -15 -27 -25.5
t-58.5 -12.5t-62.5 7t-38 33q-7 18 -9.5 59t-2.5 93.5t2 111t5 111.5t6.5 93.5t6.5 58.5q1 3 1.5 12.5t7 20t20.5 19t42 9.5q38 1 57.5 -7.5t27.5 -19.5q10 -12 9 -29v-49v1q31 38 76 62t92.5 28.5t93.5 -13t80 -63.5v1zM1205 90q3 -26 -10.5 -45t-35 -29.5t-47.5 -13
t-49.5 4t-40 22.5t-18.5 42q-4 44 -5 92t-3.5 92.5t-6.5 83t-14 64t-26.5 34.5t-43.5 -4q-18 -9 -42.5 -46t-47.5 -88.5t-40 -111.5t-20 -116q-5 -32 -31.5 -49.5t-62.5 -21.5q-25 -2 -51 1.5t-47 23.5q-25 24 -37.5 71.5t-19 100.5t-10 104.5t-11.5 84.5q-18 80 -60 73
q-18 -4 -34.5 -25t-30.5 -54t-25.5 -74.5t-20 -85t-14.5 -86t-8 -77.5q-2 -32 -33.5 -47t-75.5 -17q-51 -1 -76 19.5t-36 55.5q-16 48 -24 110.5t-10 128.5t2 130t13 115q4 26 25 39t46.5 15t49.5 -4t34 -17q4 -5 5.5 -10.5t2.5 -9.5q1 -5 0 -9q0 -35 1.5 -69.5t3.5 -72.5
q16 37 40.5 74t56.5 66t72 48t87 20q51 0 85.5 -20.5t57 -58.5t34.5 -91t18 -118q16 39 36 78t46 73.5t59 64t75 49.5q40 19 82.5 24t81 -10.5t71 -54t53.5 -105.5q10 -32 16 -82.5t9 -104.5t4 -102t1 -74z" />
    <glyph glyph-name="b_b" unicode="bb" horiz-adv-x="1192" 
d="M815 596q55 4 111.5 -4t104 -33t81 -68.5t43.5 -109.5q10 -69 -12.5 -136.5t-67.5 -120t-107 -82t-132 -22.5q0 -12 -12 -22.5t-31 -17t-41.5 -8.5t-43 2.5t-37 16t-22.5 32.5q-7 25 -11.5 83.5t-6 133t-1 156.5t4 155.5t9 130.5t13.5 80q5 17 20 31t48 16
q38 1 56.5 -10.5t26.5 -25.5q9 -17 8 -38q0 -28 -0.5 -58.5t-0.5 -80.5zM826 189q46 3 80.5 24.5t53.5 51t22 62t-14 58t-54 39.5t-98 7q-2 -66 2 -125t8 -117zM221 589q56 19 112.5 12t104.5 -35.5t82 -75t44 -106.5q12 -64 -7 -126t-59.5 -112.5t-99 -85t-125.5 -44.5
q-17 -2 -34.5 -1t-34.5 8q-18 -8 -41.5 -11t-46 0.5t-40 14t-23.5 30.5t-10 68.5t-6 111.5t-1.5 133t3 133t7 111.5t11.5 68.5q1 4 4.5 15.5t11.5 23.5t21.5 22t35.5 10q38 1 57 -9.5t27 -23.5q9 -15 8 -34q-1 -12 -1 -27v-71zM233 174q56 -2 95 22t59 59t21.5 73.5
t-17.5 66t-59.5 37.5t-102.5 -13q-5 -73 -4 -135.5t6 -109.5h2z" />
    <glyph glyph-name="d_d" unicode="dd" horiz-adv-x="1181" 
d="M1149 23q2 -13 -9 -24t-30 -18.5t-42.5 -11t-44.5 0.5t-38 15.5t-22 32.5q0 1 -0.5 2.5t-0.5 2.5q-81 -15 -141.5 3.5t-101 58.5t-61 95.5t-20 114.5t21.5 115.5t63 99t105 65t148 13.5q5 37 7.5 76t13.5 76q2 9 6.5 18.5t12.5 18t21 14.5t32 7q38 2 56 -9t26 -25
q9 -17 7 -38q0 -13 -1 -30q-1 -14 -2 -34t-2 -44q-2 -28 -3.5 -80.5t-2 -116.5t-1 -131.5t-0.5 -124.5t0.5 -96t2.5 -46zM961 421q-39 12 -68.5 -2t-46 -41.5t-20 -61t8.5 -60.5t40.5 -41t75.5 -2q0 25 1 46t2 43.5t3 50.5t4 68zM587 64q3 -9 -2 -17t-16 -15.5t-26 -13
t-31 -8.5q-31 -6 -60.5 -0.5t-44.5 27.5q-63 -32 -130.5 -23t-123.5 47.5t-91.5 100.5t-33.5 137q2 68 33.5 127.5t82.5 100.5t115.5 57.5t133.5 -1.5q2 12 4 30.5t4.5 38t6.5 37.5t10 31q6 14 22 26t49 9q38 -2 56 -14.5t25 -25.5q3 -7 4 -13t1 -11v-10q-6 -45 -8.5 -99
t-3.5 -110.5t0.5 -114.5t4.5 -111.5t8 -100t11 -81.5zM215 295q0 -34 15 -55t38.5 -27.5t51 2.5t53.5 36q-1 38 -0.5 76t3.5 82q-30 12 -58.5 8.5t-50.5 -19t-36.5 -42t-15.5 -61.5z" />
    <glyph glyph-name="f_f" unicode="ff" horiz-adv-x="850" 
d="M777 603q-42 22 -68 20t-41 -22.5t-19.5 -56t-2.5 -78.5q7 0 26.5 -0.5t41.5 -1t41.5 0t25.5 3.5q13 5 21.5 -4.5t13 -27t5.5 -40t-1 -43.5t-6.5 -37t-10.5 -21q-12 -10 -32.5 -11.5t-42.5 1t-44 7t-37 6.5q0 -80 4.5 -150t9 -122.5t9 -84t4.5 -34.5q3 -16 -8 -28.5
t-30 -20.5t-42 -10t-44.5 3.5t-38.5 20t-23 39.5q-7 28 -13 79.5t-11 116.5t-7.5 138t-0.5 143t8.5 132t19.5 105q9 31 23 58.5t35 49.5t49 35.5t64 16.5q33 3 61 -3t49 -16.5t33.5 -22.5t14.5 -21q2 -17 0 -39t-7 -41t-12.5 -31t-16.5 -8zM331 585q-24 -5 -37.5 -13
t-20 -21t-9.5 -31.5t-6 -43.5q47 2 81.5 3.5t37.5 2.5q6 2 10.5 -9.5t6.5 -30.5t2 -42.5t-3 -44.5t-9.5 -37.5t-15.5 -21.5q-17 -9 -50 -11.5t-72 -0.5q1 -30 2.5 -66.5t5 -74t8 -73t11.5 -62.5q5 -18 -17.5 -35.5t-55.5 -25.5q-17 -5 -34 -6t-32.5 3t-27.5 13.5t-19 26.5
q-11 30 -17 67t-10 77.5t-5.5 84t-1.5 85.5q-8 2 -16.5 15t-13.5 51q-4 38 0 57.5t10 28.5q7 11 17 11h5h5t8 1v1q6 33 13.5 68.5t20 68.5t33 62.5t53.5 50.5q31 21 68.5 29.5t78.5 8.5q45 0 61 -27t11 -81q-2 -25 -4.5 -36t-10 -14.5t-22 -4t-39.5 -3.5z" />
    <glyph glyph-name="s_s" unicode="ss" horiz-adv-x="912" 
d="M797 431l-7 10.5t-13 17.5t-18 20t-23 17q-12 6 -25.5 9t-26 1.5t-22 -7t-12.5 -15.5q-5 -14 7.5 -34.5t41.5 -37.5q18 -11 39 -24.5t41.5 -30.5t39.5 -37t33 -44q31 -51 32.5 -106.5t-22 -101t-70.5 -75t-113 -28.5q-33 0 -65.5 10t-60.5 30t-48.5 49.5t-27.5 70.5
q-5 29 7.5 54.5t32 39t40.5 11t35 -28.5q16 -32 32.5 -51t31.5 -28q19 -12 33.5 -9t21 14.5t4.5 28.5t-16 33q-14 17 -35.5 32.5t-43.5 29t-41.5 24.5t-28.5 19q-40 31 -65 75.5t-18 100.5q4 38 23.5 71.5t49.5 57.5t68.5 37t80.5 12q29 -1 57.5 -7.5t53.5 -19t45.5 -33
t33.5 -50.5q5 -13 6.5 -24.5t-0.5 -22.5q-3 -25 -13.5 -43t-23.5 -26.5t-27 -6.5t-24 16zM338 368q11 -8 24.5 -20.5t27 -29.5t24.5 -39.5t16 -50.5q8 -40 1.5 -79t-25.5 -71.5t-51 -56.5t-75 -33q-33 -7 -66.5 -4.5t-64.5 15.5t-57.5 35.5t-45.5 55.5q-16 28 -18 54t6 47
t22.5 35.5t31.5 18t34 -5t30 -32.5q5 -10 15.5 -27t23.5 -30.5t28 -19t30 6.5q10 8 10 24t-18 36q-12 12 -29.5 25t-37 26.5t-38 26.5t-31.5 24q-44 37 -63.5 84.5t-14 92.5t36.5 82.5t89 55.5q30 9 62 10.5t64 -4.5t62.5 -19t56.5 -32q25 -20 33.5 -41t6.5 -39t-10.5 -31.5
t-15.5 -18.5q-20 -15 -40 -15.5t-25 5.5q-5 7 -16 19t-44 31q-25 14 -46 15t-30 -7.5t-1.5 -25.5t40.5 -38q22 -14 46.5 -28.5t41.5 -26.5z" />
    <glyph glyph-name="t_t" unicode="tt" horiz-adv-x="928" 
d="M890 566q7 2 11 -10t5.5 -31t-0.5 -42t-6.5 -44.5t-12.5 -37.5t-19 -20q-12 -5 -33 -7t-47 -2q-2 -86 2 -175t21 -180q3 -12 -7.5 -24t-29 -20.5t-41.5 -12.5t-45 -1t-39 13.5t-24 31.5q-13 38 -19 85.5t-8 98t-0.5 101.5t3.5 96q-26 2 -42 4t-20 2q-2 0 -8.5 0.5t-13 6
t-12.5 19.5t-8 42q-2 38 3 57.5t12 28.5q8 11 19 11q10 0 23 1q11 1 26 1.5t32 2.5q5 57 9.5 93.5t6.5 43.5q0 4 1.5 17t8.5 26.5t22 24.5t43 11q17 0 33.5 -3.5t29.5 -12.5t20 -23t6 -34q-2 -34 -3.5 -68.5t0.5 -69.5q41 0 69.5 -0.5t31.5 0.5zM345 225q8 13 23 14.5t32 -6
t33 -22t25 -33.5q11 -23 7 -43.5t-15 -39.5q-15 -25 -38 -44.5t-51 -32.5t-59 -17.5t-62 0.5q-38 7 -68.5 27.5t-53 50t-36.5 64.5t-20 73q-5 39 -4.5 79t1.5 84q-13 7 -21 27t-10 43.5t1 46t12 33.5q5 8 13 10q4 1 6 1h3h4.5t5.5 1q6 66 9.5 107.5t3.5 46.5q0 15 10 25
t24 15t29.5 6t27.5 -1q31 -4 59.5 -21.5t34.5 -51.5q2 -18 1 -48t-4 -68q75 4 150 15q14 5 22 -5.5t11 -29.5t2 -43t-6 -46.5t-12.5 -40t-16.5 -22.5q-19 -11 -39 -15.5t-41.5 -5.5t-43.5 0.5t-44 3.5q-2 -18 -4 -37.5t-2.5 -40t2.5 -41t11 -39.5q13 -30 38.5 -23.5
t49.5 44.5z" />
    <glyph glyph-name="l_l" unicode="ll" horiz-adv-x="546" 
d="M507 359v-132v-117t0.5 -85t0.5 -36q2 -13 -9.5 -23.5t-30.5 -16.5t-42.5 -7.5t-45.5 4t-38.5 18.5t-21.5 35q-7 32 -8.5 94.5t0.5 138t6.5 156t9 148t8 114t4.5 55.5q1 4 2 17t7.5 27t21 25t42.5 13q38 2 57.5 -8.5t27.5 -24.5q10 -17 9 -39v-356zM222 669
q-3 -34 -4 -87.5t0 -116t3.5 -127.5t6 -122.5t7 -101.5t7.5 -64q3 -12 -7.5 -22.5t-29 -18t-41.5 -10.5t-44.5 -0.5t-39 12.5t-24.5 29q-11 37 -17 90.5t-8 114t-0.5 124t5.5 120.5t9.5 104.5t11.5 75.5q1 4 2.5 15.5t8 23.5t21.5 21.5t43 9.5q16 -1 33.5 -4.5t31 -12
t21.5 -21.5t4 -32z" />
    <glyph glyph-name="e_e" unicode="ee" horiz-adv-x="1040" 
d="M951 181q11 6 22 -0.5t18.5 -20.5t10.5 -33t0 -39q-5 -31 -20 -53.5t-36.5 -38t-48.5 -24t-55 -10.5q-53 -3 -91.5 8t-65 33.5t-42.5 54.5t-25 69t-15 85.5t-6.5 102t5.5 108t21 103t41.5 87.5t66.5 62q45 26 94.5 28.5t90.5 -19.5q28 -15 47 -44.5t29.5 -67t12 -79.5
t-6 -81t-24 -71.5t-42.5 -51.5q-23 -17 -56 -24.5t-81 0.5q-4 -53 6.5 -78.5t32 -32t52 2t65.5 24.5zM797 393q12 -7 23 -2t20 17t15.5 29t8.5 35q3 27 -4 43t-17.5 18t-22 -10.5t-18.5 -41.5q-8 -38 -5 -88zM542 445q8 -41 -3.5 -78t-37 -66t-61 -49.5t-75.5 -29.5
q-24 -6 -50 -8t-61 -1q0 -34 15.5 -50t36.5 -16t43.5 14.5t37.5 41.5q16 16 38.5 17.5t42.5 -8.5t33 -29.5t11 -43.5q-9 -37 -35.5 -64t-62 -43.5t-76 -21.5t-76.5 2q-36 8 -69.5 25.5t-62 43t-50.5 58.5t-34 74q-18 64 -7.5 131t45.5 123t92.5 93t132.5 40q37 1 75 -8
t70 -27.5t55.5 -48.5t32.5 -71zM234 360q61 -2 92.5 10.5t41 28.5t1 30t-29 15t-48.5 -17.5t-57 -66.5z" />
    <glyph glyph-name="n_n" unicode="nn" horiz-adv-x="1391" 
d="M1150 619q53 -15 89 -48t58.5 -77.5t32.5 -96.5t10 -103q0 -61 -9 -128.5t-25 -132.5q-8 -33 -34.5 -42t-60.5 -2q-17 4 -33.5 11t-28.5 18.5t-18.5 29t-3.5 41.5q2 20 6 44.5t9 53.5q20 105 3.5 166t-51.5 81.5t-78.5 2.5t-76.5 -70q-21 -33 -31.5 -69t-14.5 -74.5
t-3.5 -78.5t2.5 -79q1 -16 3 -31.5t1 -30t-8 -27t-25 -21.5q-18 -10 -41 -14.5t-45 -2.5q-34 1 -52.5 22t-28 51t-12.5 63.5t-4 60.5q-3 43 -2.5 91t2.5 97t5.5 95.5t7.5 86.5t7.5 71t5.5 48q0 4 2.5 13.5t10.5 19.5t24 16.5t44 4.5q17 -1 33.5 -5.5t29 -13.5t20 -23
t6.5 -34q-1 -7 -2 -16q-1 -8 -1.5 -18.5t-0.5 -24.5q30 28 64.5 46.5t70.5 28t72.5 9.5t70.5 -9zM592 369q4 -20 6.5 -48.5t3.5 -60.5t0 -65t-4 -63t-7.5 -54.5t-11.5 -39.5q-10 -21 -37 -29.5t-55.5 -5.5t-50.5 17.5t-22 38.5q0 6 1 15.5t3 17.5q2 10 4 21q6 42 8 89t-8 92
q-4 18 -11 37t-19 35t-29 26t-41 9q-18 0 -35.5 -8.5t-31 -25t-21.5 -41t-7 -55.5q-1 -1 -1 -4q1 -42 2.5 -81t3 -69.5t2.5 -50t2 -22.5q2 -10 -9.5 -17.5t-30.5 -12.5t-42 -6t-44.5 2.5t-38.5 12.5t-22 24q-6 18 -8.5 57t-2 88.5t3 104t5.5 104t6.5 88.5t6.5 57q1 3 2 12.5
t7.5 19t21 17t42.5 7.5q38 0 57 -9t27 -20q3 -5 4 -9t3 -7q35 14 73.5 23t76.5 7q45 -2 81.5 -20t64 -47t46 -68t26.5 -83z" />
    <glyph glyph-name=".notdef" horiz-adv-x="298" 
 />
    <glyph glyph-name="NULL" horiz-adv-x="0" 
 />
    <glyph glyph-name="NULL" horiz-adv-x="0" 
 />
    <glyph glyph-name="nonmarkingreturn" unicode="&#xd;" horiz-adv-x="298" 
 />
    <glyph glyph-name="space" unicode=" " horiz-adv-x="298" 
 />
    <glyph glyph-name="y" unicode="y" horiz-adv-x="596" 
d="M494 597q18 0 35 -6t29.5 -17.5t18 -27.5t1.5 -36q-15 -88 -40.5 -178t-62 -177.5t-86 -170t-112.5 -155.5q-28 -32 -53.5 -33.5t-63.5 30.5q-25 23 -38.5 53t0.5 58q22 42 50 78.5t53 78.5q-45 36 -81 87t-62 109t-42.5 119t-23.5 118q-3 28 17.5 50.5t48.5 32.5
t54.5 3.5t35.5 -36.5q12 -42 26 -86.5t32 -85.5t40 -76t51 -58q29 61 52 124t40 131q6 29 25 50.5t56 20.5z" />
    <glyph glyph-name="S" unicode="S" horiz-adv-x="693" 
d="M312 450q23 -10 47 -18.5t46.5 -16t41 -13.5t30.5 -10q45 -17 87 -38.5t71 -60.5q26 -36 28.5 -75.5t-14.5 -76.5t-52 -68t-85 -50q-40 -15 -86.5 -22.5t-94 -6t-92 12t-80.5 30.5q-19 11 -33.5 25t-22.5 34q-9 37 0 63.5t29 41.5t47.5 16t54.5 -13q15 -5 32 -11
t35.5 -11t37 -8.5t36.5 -2.5q39 3 52.5 12.5t9.5 22t-21 25.5t-39 22q-44 17 -89 28t-88 27q-67 24 -109.5 70t-55 100t9 109.5t81.5 97.5q29 21 71.5 34.5t91 19t98.5 1t93.5 -19t76.5 -40.5t47 -64q11 -29 3.5 -56t-19.5 -41t-24.5 -18t-24.5 -2t-23 9t-20 16
q-19 19 -55 34t-75 19.5t-73.5 -3t-50.5 -32.5q-12 -20 1 -44t69 -48z" />
    <glyph glyph-name="c" unicode="c" horiz-adv-x="605" 
d="M369 441q-33 -6 -63 -28t-46 -45q-21 -29 -29 -60.5t0.5 -56.5t36 -38t79.5 -4q24 5 50 19t36 34q4 5 9.5 12t13 12.5t18 8t24.5 -0.5q27 -6 45.5 -25.5t25.5 -46t1 -55t-27 -52.5q-38 -41 -86 -66.5t-99 -35t-101.5 -2t-94 32t-76 66.5t-46.5 101q-17 73 2 142
t64.5 124.5t112 91.5t144.5 42q29 2 60.5 -2t59.5 -14.5t48.5 -27.5t28.5 -40q5 -17 3.5 -35.5t-9.5 -35t-24 -27t-40 -10.5q-16 0 -31.5 4.5t-30.5 9.5t-29.5 8t-29.5 0z" />
    <glyph glyph-name="h" unicode="h" horiz-adv-x="628" 
d="M592 71q2 -11 -4.5 -20.5t-18 -16.5t-27 -11t-32.5 -5q-17 0 -33.5 3t-30.5 10.5t-24 19t-14 28.5q-3 13 -4 43t-1 66t1 73.5t2 65.5q2 43 -8.5 70t-28 39t-39 9.5t-42 -18t-37 -43.5t-23.5 -67q3 -50 6.5 -96t6.5 -82t5.5 -58t2.5 -24q3 -12 -7.5 -22.5t-29 -17.5
t-41.5 -10.5t-44.5 -0.5t-38.5 13t-24 29q-8 22 -14.5 74t-9.5 119t-4 141t1.5 140.5t7.5 117t13 71.5q5 14 19.5 26.5t46.5 14.5q38 1 57 -9t27 -23q9 -15 8 -34q0 -35 0.5 -71t1.5 -77q28 34 64.5 52t75 20.5t76 -10t68.5 -39.5t52 -67.5t27 -94.5q3 -28 5 -66t3 -81.5
t2 -89.5t1 -91z" />
    <glyph glyph-name="o" unicode="o" horiz-adv-x="612" 
d="M573 320q0 -65 -22.5 -117.5t-59.5 -91t-84 -61t-96.5 -28.5t-97.5 6.5t-86 44t-62 84t-26 126.5q-2 45 8.5 89t33.5 83q35 58 91 96t131 40q51 1 100 -17t87.5 -52.5t61 -85.5t21.5 -116zM378 305q5 42 -6 69.5t-30 41t-42 13t-43 -15t-34 -42.5t-14 -70
q0 -38 11.5 -61.5t29 -34.5t38.5 -9.5t40 14.5t32.5 37t17.5 58z" />
    <glyph glyph-name="l" unicode="l" horiz-adv-x="273" 
d="M222 669q-3 -34 -4 -87.5t0 -116t3.5 -127.5t6 -122.5t7 -101.5t7.5 -64q3 -12 -7.5 -22.5t-29 -18t-41.5 -10.5t-44.5 -0.5t-39 12.5t-24.5 29q-11 37 -17 90.5t-8 114t-0.5 124t5.5 120.5t9.5 104.5t11.5 75.5q1 4 2.5 15.5t8 23.5t21.5 21.5t43 9.5q16 -1 33.5 -4.5
t31 -12t21.5 -21.5t4 -32z" />
    <glyph glyph-name="A" unicode="A" horiz-adv-x="597" 
d="M586 72q0 -36 -21.5 -51t-54.5 -18q-17 -2 -33.5 -1t-30 7.5t-24 21.5t-15.5 42q0 1 -1.5 8t-2.5 15t-2.5 15t-1.5 9q-54 -2 -108.5 -2t-111.5 4q-1 -5 -2.5 -15t-3.5 -20.5l-4 -21t-3 -16.5q-6 -22 -27 -34t-45 -13t-46 9t-31 33q-7 16 -5.5 62t10 108t24.5 133.5
t38 139.5t50.5 125.5t62.5 91.5q24 24 52.5 38.5t63.5 13.5q52 0 91.5 -28t67 -71t44.5 -93t25 -94q6 -29 11.5 -66.5t10.5 -78.5t9 -81l7.5 -75t5 -60.5t1.5 -36.5zM204 292q42 5 84.5 7.5t87.5 5.5q-3 21 -6.5 46t-8.5 51.5t-12.5 52.5t-17.5 49q-14 29 -27 26.5
t-26 -24.5q-25 -46 -40.5 -99t-33.5 -115z" />
    <glyph glyph-name="g" unicode="g" horiz-adv-x="631" 
d="M565 513q12 -49 20 -110.5t9 -128.5t-6 -135t-25 -131t-47.5 -117t-72.5 -92q-36 -29 -78 -45.5t-86.5 -17.5t-88.5 13.5t-84 46.5q-33 27 -54.5 62.5t-21.5 77.5q3 23 17.5 40t34.5 23.5t42 2t39 -25.5q8 -9 16 -19.5t18 -21.5q31 -33 60.5 -37t53.5 12t41 48t25 72
q-67 -6 -133 14.5t-115.5 63t-76 105t-15.5 139.5q15 95 78 157.5t159 90.5q20 6 47 10t57 4t60 -4.5t56 -16t45 -31.5t26 -49zM389 441q-54 0 -89.5 -19t-52 -46.5t-15.5 -59t20.5 -57t56 -40t90.5 -7.5q6 67 1.5 123.5t-13.5 110.5q-2 0 1 -3q1 -1 1 -2z" />
    <glyph glyph-name="e" unicode="e" horiz-adv-x="574" 
d="M542 445q8 -41 -3.5 -78t-37 -66t-61 -49.5t-75.5 -29.5q-24 -6 -50 -8t-61 -1q0 -34 15.5 -50t36.5 -16t43.5 14.5t37.5 41.5q16 16 38.5 17.5t42.5 -8.5t33 -29.5t11 -43.5q-9 -37 -35.5 -64t-62 -43.5t-76 -21.5t-76.5 2q-36 8 -69.5 25.5t-62 43t-50.5 58.5t-34 74
q-18 64 -7.5 131t45.5 123t92.5 93t132.5 40q37 1 75 -8t70 -27.5t55.5 -48.5t32.5 -71zM234 360q61 -2 92.5 10.5t41 28.5t1 30t-29 15t-48.5 -17.5t-57 -66.5z" />
    <glyph glyph-name="i" unicode="i" horiz-adv-x="254" 
d="M213 454q2 -2 3.5 -33t2 -76.5t1 -98t0.5 -98t0.5 -76.5t0.5 -32q2 -8 -9.5 -13.5t-31 -8.5t-42.5 -2.5t-44.5 4.5t-37.5 12t-20 21q-5 12 -6.5 39t-0.5 63t3 77t5 81t6.5 74.5t5.5 58.5q0 2 0.5 9.5t6 15.5t19.5 14.5t42 8.5q38 2 58 -3.5t28 -13.5q10 -10 10 -23z
M208 609q0 -30 -20.5 -50t-51.5 -20q-29 0 -49 20t-20 50q0 29 20 49.5t49 20.5q31 0 51.5 -20.5t20.5 -49.5z" />
    <glyph glyph-name="n" unicode="n" horiz-adv-x="639" 
d="M592 369q4 -20 6.5 -48.5t3.5 -60.5t0 -65t-4 -63t-7.5 -54.5t-11.5 -39.5q-10 -21 -37 -29.5t-55.5 -5.5t-50.5 17.5t-22 38.5q0 6 1 15.5t3 17.5q2 10 4 21q6 42 8 89t-8 92q-4 18 -11 37t-19 35t-29 26t-41 9q-18 0 -35.5 -8.5t-31 -25t-21.5 -41t-7 -55.5
q-1 -1 -1 -4q1 -42 2.5 -81t3 -69.5t2.5 -50t2 -22.5q2 -10 -9.5 -17.5t-30.5 -12.5t-42 -6t-44.5 2.5t-38.5 12.5t-22 24q-6 18 -8.5 57t-2 88.5t3 104t5.5 104t6.5 88.5t6.5 57q1 3 2 12.5t7.5 19t21 17t42.5 7.5q38 0 57 -9t27 -20q3 -5 4 -9t3 -7q35 14 73.5 23t76.5 7
q45 -2 81.5 -20t64 -47t46 -68t26.5 -83z" />
    <glyph glyph-name="u" unicode="u" horiz-adv-x="655" 
d="M463 555q12 31 41 40t58 2t49 -26t14 -44q-11 -58 -17.5 -116.5t-10.5 -121.5q-2 -45 -2 -88t2 -78q3 -34 3 -48.5t1 -16.5q4 -14 -7 -26t-29.5 -20.5t-41.5 -13t-44.5 -2t-38 11.5t-22.5 27q-1 3 -2 6.5t-2 8.5q-46 -29 -88.5 -39.5t-81.5 -5.5q-58 7 -98 35t-65 70.5
t-36 94.5t-12 107t7.5 108.5t23.5 98.5q5 17 12 31t15 25q12 17 30 26t45 2q38 -10 54 -27.5t21 -34.5q3 -17 0 -33t-8 -34t-11 -40.5t-10 -53.5q-15 -113 5.5 -166t66.5 -51q24 1 42.5 16.5t33 40t25.5 56t20 65.5q13 52 24 106t34 108z" />
    <glyph glyph-name="W" unicode="W" horiz-adv-x="944" 
d="M805 742q23 -8 39 -29t27 -50q17 -43 28.5 -105t13.5 -130.5t-8 -138t-35 -127.5t-68 -99t-107 -53q-30 -5 -61 -2t-60 15.5t-54 34.5t-44 55q-1 1 -1 2q-49 -61 -100 -88.5t-99 -28t-90.5 23t-75.5 64t-53 95.5t-23 117q-5 92 9.5 187.5t45.5 179.5q11 31 26 52.5
t33 26.5q14 4 31.5 3t33.5 -7q15 -5 29 -16.5t22 -26.5q19 -30 12 -73q-17 -74 -33.5 -149.5t-20.5 -159.5q-2 -68 21.5 -95.5t54 -17.5t57.5 56t33 126q1 10 2.5 22t3 28.5t4 39t7.5 52.5q3 23 18.5 39t43.5 18q53 6 80.5 -18t23.5 -72q-3 -40 -2 -79t6 -82
q10 -79 34 -112.5t49.5 -30t46 38.5t24.5 94q3 44 -1 94t-11.5 96t-17.5 83t-19 56q-6 13 -3 26.5t13 25.5q18 26 50.5 38.5t64.5 0.5z" />
    <glyph glyph-name="w" unicode="w" horiz-adv-x="887" 
d="M718 629q17 0 34.5 -10.5t29.5 -25.5q17 -21 29.5 -52t20.5 -64.5t12 -65.5t4 -54q0 -60 -13.5 -120t-43.5 -109.5t-77 -81t-113 -34.5q-51 -2 -97.5 18t-80.5 64q-29 -35 -71 -56.5t-90 -25.5q-50 -5 -92 11.5t-72 47.5t-46.5 74.5t-17.5 93.5q-1 45 8.5 91.5t26.5 91
t40.5 84.5t49.5 73q13 14 32.5 20t45.5 -4q35 -16 46.5 -34.5t12.5 -36.5q0 -8 -2 -15.5t-4 -12.5q-3 -6 -5 -12q-20 -39 -36.5 -82t-27.5 -94q-11 -50 -5 -81t21.5 -40t36 5t37.5 54q9 19 16.5 43t14 49.5t11.5 50.5t8 47q4 20 21.5 34t44.5 13q24 0 47.5 -10.5t34.5 -36.5
q11 -29 10 -60.5t3 -64.5q4 -40 17 -65.5t30 -36.5t35 -9t33 17q21 22 25.5 58t0 75.5t-15.5 77t-21 62.5q-12 28 -16 32q-7 11 -4 23.5t11 24.5t18.5 22t18.5 16q14 10 30.5 16t33.5 5z" />
    <glyph glyph-name="v" unicode="v" horiz-adv-x="621" 
d="M511 602q34 -8 62 -24.5t29 -44.5q-7 -41 -20.5 -97.5t-35 -117.5t-50.5 -120.5t-67 -105.5q-37 -45 -77.5 -68t-79.5 -21t-74.5 32t-63.5 90q-44 93 -73 194.5t-40 205.5q-1 3 -2 13.5t3.5 23t17 24.5t39.5 19q37 10 57 6t31 -12q8 -7 12 -16q2 -4 3 -9q9 -33 19.5 -74
t22.5 -84t26.5 -85.5t31.5 -78.5q6 -13 10.5 -22t9 -10.5t10.5 5.5t15 27q9 22 23.5 61t28.5 85.5t26.5 96t18.5 93.5q2 14 28 17t59 -3z" />
    <glyph glyph-name="m" unicode="m" horiz-adv-x="1245" 
d="M1205 90q3 -26 -10.5 -45t-35 -29.5t-47.5 -13t-49.5 4t-40 22.5t-18.5 42q-4 44 -5 92t-3.5 92.5t-6.5 83t-14 64t-26.5 34.5t-43.5 -4q-18 -9 -42.5 -46t-47.5 -88.5t-40 -111.5t-20 -116q-5 -32 -31.5 -49.5t-62.5 -21.5q-25 -2 -51 1.5t-47 23.5q-25 24 -37.5 71.5
t-19 100.5t-10 104.5t-11.5 84.5q-18 80 -60 73q-18 -4 -34.5 -25t-30.5 -54t-25.5 -74.5t-20 -85t-14.5 -86t-8 -77.5q-2 -32 -33.5 -47t-75.5 -17q-51 -1 -76 19.5t-36 55.5q-16 48 -24 110.5t-10 128.5t2 130t13 115q4 26 25 39t46.5 15t49.5 -4t34 -17q4 -5 5.5 -10.5
t2.5 -9.5q1 -5 0 -9q0 -35 1.5 -69.5t3.5 -72.5q16 37 40.5 74t56.5 66t72 48t87 20q51 0 85.5 -20.5t57 -58.5t34.5 -91t18 -118q16 39 36 78t46 73.5t59 64t75 49.5q40 19 82.5 24t81 -10.5t71 -54t53.5 -105.5q10 -32 16 -82.5t9 -104.5t4 -102t1 -74z" />
    <glyph glyph-name="b" unicode="b" horiz-adv-x="604" 
d="M221 589q56 19 112.5 12t104.5 -35.5t82 -75t44 -106.5q12 -64 -7 -126t-59.5 -112.5t-99 -85t-125.5 -44.5q-17 -2 -34.5 -1t-34.5 8q-18 -8 -41.5 -11t-46 0.5t-40 14t-23.5 30.5t-10 68.5t-6 111.5t-1.5 133t3 133t7 111.5t11.5 68.5q1 4 4.5 15.5t11.5 23.5t21.5 22
t35.5 10q38 1 57 -9.5t27 -23.5q9 -15 8 -34q-1 -12 -1 -27v-71zM233 174q56 -2 95 22t59 59t21.5 73.5t-17.5 66t-59.5 37.5t-102.5 -13q-5 -73 -4 -135.5t6 -109.5h2z" />
    <glyph glyph-name="d" unicode="d" horiz-adv-x="611" 
d="M587 64q3 -9 -2 -17t-16 -15.5t-26 -13t-31 -8.5q-31 -6 -60.5 -0.5t-44.5 27.5q-63 -32 -130.5 -23t-123.5 47.5t-91.5 100.5t-33.5 137q2 68 33.5 127.5t82.5 100.5t115.5 57.5t133.5 -1.5q2 12 4 30.5t4.5 38t6.5 37.5t10 31q6 14 22 26t49 9q38 -2 56 -14.5t25 -25.5
q3 -7 4 -13t1 -11v-10q-6 -45 -8.5 -99t-3.5 -110.5t0.5 -114.5t4.5 -111.5t8 -100t11 -81.5zM215 295q0 -34 15 -55t38.5 -27.5t51 2.5t53.5 36q-1 38 -0.5 76t3.5 82q-30 12 -58.5 8.5t-50.5 -19t-36.5 -42t-15.5 -61.5z" />
    <glyph glyph-name="k" unicode="k" horiz-adv-x="590" 
d="M559 135q6 -3 1 -14t-17 -26.5t-28.5 -32t-33.5 -29.5t-33 -20t-27 -3q-20 7 -48.5 34t-58 61t-56 68.5t-41.5 55.5q3 -19 5 -41t4.5 -43t4.5 -39.5t5 -31.5q4 -17 -20 -31.5t-58 -20.5q-17 -3 -33.5 -3t-31.5 4.5t-26.5 13t-17.5 22.5q-9 29 -14 79.5t-6.5 111.5
t-0.5 127.5t4 127t7 109.5t8 75q0 4 1.5 15t8.5 23t22 21t43 8q16 0 32.5 -3.5t29.5 -11.5t21 -21.5t7 -32.5q-6 -69 -6 -137.5t1 -140.5q24 24 53.5 50.5t58.5 56t53.5 60t38.5 62.5q5 5 19.5 2t33.5 -11t39 -20t35.5 -25t23.5 -25.5t4 -22.5q-18 -41 -43 -74.5t-52 -60.5
t-53.5 -49t-45.5 -38q25 -25 57 -55.5t60 -57.5t48 -46t22 -20z" />
    <glyph glyph-name="f" unicode="f" horiz-adv-x="425" 
d="M331 585q-24 -5 -37.5 -13t-20 -21t-9.5 -31.5t-6 -43.5q47 2 81.5 3.5t37.5 2.5q6 2 10.5 -9.5t6.5 -30.5t2 -42.5t-3 -44.5t-9.5 -37.5t-15.5 -21.5q-17 -9 -50 -11.5t-72 -0.5q1 -30 2.5 -66.5t5 -74t8 -73t11.5 -62.5q5 -18 -17.5 -35.5t-55.5 -25.5q-17 -5 -34 -6
t-32.5 3t-27.5 13.5t-19 26.5q-11 30 -17 67t-10 77.5t-5.5 84t-1.5 85.5q-8 2 -16.5 15t-13.5 51q-4 38 0 57.5t10 28.5q7 11 17 11h5h5t8 1v1q6 33 13.5 68.5t20 68.5t33 62.5t53.5 50.5q31 21 68.5 29.5t78.5 8.5q45 0 61 -27t11 -81q-2 -25 -4.5 -36t-10 -14.5t-22 -4
t-39.5 -3.5z" />
    <glyph glyph-name="j" unicode="j" horiz-adv-x="524" 
d="M452 669q0 -29 -20.5 -50t-49.5 -21t-50 21t-21 50t21 49.5t50 20.5t49.5 -20.5t20.5 -49.5zM283 57q19 106 18 206.5t-9 200.5q-1 8 -1.5 13.5t-0.5 6.5q-3 15 9 28.5t31.5 22.5t43.5 12t45.5 -2t37.5 -19t19 -40q6 -50 10 -102.5t5 -105.5t-2.5 -104.5t-13.5 -100.5
q-9 -44 -24.5 -85t-38.5 -75q-36 -53 -84.5 -78t-98 -22.5t-94 31t-72.5 84.5q-23 45 -33 94.5t-8 91.5q3 35 26.5 55t52 23.5t53 -10.5t28.5 -46q2 -11 2.5 -34t2.5 -46q4 -42 17 -59t28 -15t29 22t22 53z" />
    <glyph glyph-name="q" unicode="q" horiz-adv-x="561" 
d="M523 -117q2 -12 -9.5 -22t-30.5 -17t-42 -9.5t-44.5 1t-38.5 14t-22 30.5q-6 22 -8.5 57.5t-2.5 80.5q-68 -11 -125 7t-97.5 57.5t-61.5 97.5t-16 126q6 70 38.5 130.5t83.5 99.5t116 51.5t136 -12.5q9 9 22.5 14.5t35.5 4.5q14 -1 31 -5t31 -12.5t21.5 -22t2.5 -32.5
q-2 -12 -3 -27q-2 -13 -2.5 -31t-2.5 -40q-2 -26 -4 -73.5t-4 -105.5t-3.5 -118.5t-2 -112.5t-0.5 -88t2 -43zM360 412q-41 18 -71.5 6.5t-49 -39t-24 -62.5t5.5 -64t39 -44.5t75 -3.5q6 49 11 99.5t14 107.5z" />
    <glyph glyph-name="r" unicode="r" horiz-adv-x="504" 
d="M349 588q31 -3 57 -23.5t43.5 -49t25.5 -60.5t4 -57q-3 -26 -14.5 -50.5t-29 -41.5t-38.5 -22.5t-44 7.5q-14 7 -24.5 23.5t-19.5 35t-18 35.5t-19.5 26.5t-24 8t-30.5 -20.5q-5 -87 -1 -175t14 -175q3 -9 -8 -17.5t-29.5 -14t-41.5 -8t-44.5 0t-38.5 10.5t-23 23
q-5 13 -8.5 53t-5 92.5t-0.5 113t4.5 115t10.5 97.5t17 62q6 11 20.5 20.5t46.5 7.5q13 0 29 -2.5t30 -9t23 -17.5t8 -28v-8q0 -4 -0.5 -9.5t-0.5 -13.5q13 14 28.5 27.5t32.5 24t34.5 16t34.5 4.5z" />
    <glyph glyph-name="s" unicode="s" horiz-adv-x="456" 
d="M338 368q11 -8 24.5 -20.5t27 -29.5t24.5 -39.5t16 -50.5q8 -40 1.5 -79t-25.5 -71.5t-51 -56.5t-75 -33q-33 -7 -66.5 -4.5t-64.5 15.5t-57.5 35.5t-45.5 55.5q-16 28 -18 54t6 47t22.5 35.5t31.5 18t34 -5t30 -32.5q5 -10 15.5 -27t23.5 -30.5t28 -19t30 6.5
q10 8 10 24t-18 36q-12 12 -29.5 25t-37 26.5t-38 26.5t-31.5 24q-44 37 -63.5 84.5t-14 92.5t36.5 82.5t89 55.5q30 9 62 10.5t64 -4.5t62.5 -19t56.5 -32q25 -20 33.5 -41t6.5 -39t-10.5 -31.5t-15.5 -18.5q-20 -15 -40 -15.5t-25 5.5q-5 7 -16 19t-44 31q-25 14 -46 15
t-30 -7.5t-1.5 -25.5t40.5 -38q22 -14 46.5 -28.5t41.5 -26.5z" />
    <glyph glyph-name="t" unicode="t" horiz-adv-x="493" 
d="M345 225q8 13 23 14.5t32 -6t33 -22t25 -33.5q11 -23 7 -43.5t-15 -39.5q-15 -25 -38 -44.5t-51 -32.5t-59 -17.5t-62 0.5q-38 7 -68.5 27.5t-53 50t-36.5 64.5t-20 73q-5 39 -4.5 79t1.5 84q-13 7 -21 27t-10 43.5t1 46t12 33.5q5 8 13 10q4 1 6 1h3h4.5t5.5 1
q6 66 9.5 107.5t3.5 46.5q0 15 10 25t24 15t29.5 6t27.5 -1q31 -4 59.5 -21.5t34.5 -51.5q2 -18 1 -48t-4 -68q75 4 150 15q14 5 22 -5.5t11 -29.5t2 -43t-6 -46.5t-12.5 -40t-16.5 -22.5q-19 -11 -39 -15.5t-41.5 -5.5t-43.5 0.5t-44 3.5q-2 -18 -4 -37.5t-2.5 -40t2.5 -41
t11 -39.5q13 -30 38.5 -23.5t49.5 44.5z" />
    <glyph glyph-name="x" unicode="x" horiz-adv-x="589" 
d="M558 124q9 -6 6.5 -20t-13 -30.5t-27 -32.5t-35.5 -27t-39 -14t-36 7q-37 25 -70 60t-61 72q-46 -45 -79.5 -74.5t-39.5 -34.5q-3 -3 -11.5 -10t-21.5 -11.5t-30.5 -2t-38.5 20.5q-11 9 -21.5 22t-16.5 27.5t-4 29.5t16 27q8 9 26 28t39 42t41 45t33 37q-25 37 -46.5 71
t-37.5 61t-25.5 44.5t-11.5 21.5t-7.5 13.5t-6 22.5t6.5 28.5t31 30.5q12 8 27 14.5t30.5 8t30 -3.5t24.5 -20q3 -6 16.5 -25.5t30 -42.5t33 -45.5t26.5 -33.5q24 31 45.5 58.5t37 49.5t25 35.5t10.5 15.5q5 10 19.5 10.5t33.5 -6t39 -18.5t35 -27.5t22.5 -33.5t0.5 -36
q-25 -55 -65 -103.5t-82 -96.5q33 -41 68 -79.5t73 -74.5z" />
    <glyph glyph-name="z" unicode="z" horiz-adv-x="525" 
d="M488 183q9 -4 13.5 -18t5 -32.5t-2.5 -40t-8.5 -39t-13 -29t-15.5 -11.5q-36 1 -83 0.5t-96.5 -1.5t-97 -3.5t-85.5 -5.5q-11 -2 -29.5 18t-32.5 51t-15.5 69t22.5 72q19 27 43.5 55t50.5 56.5t51.5 57t45.5 55.5q-24 -4 -47 -8.5t-41 -8.5q-23 -5 -37.5 -9.5t-16.5 -5.5
q-5 -4 -13 5.5t-15.5 26t-14.5 37.5t-10 41t-1.5 36t10.5 22q20 15 54.5 24.5t75 14t84.5 5t83 -1.5t70 -7t47 -10q8 -3 13.5 -15t8.5 -29t3.5 -38t-1.5 -42q-1 -11 -7 -19q-3 -4 -5 -7q-57 -57 -106.5 -122.5t-97.5 -140.5q1 1 4 1q25 1 53 2.5t55.5 1.5t53 -1.5t45.5 -5.5
z" />
    <glyph glyph-name="B" unicode="B" horiz-adv-x="557" 
d="M395 407q28 -8 50 -23t38 -36t26 -46t13 -52q9 -69 -19.5 -118t-78 -79t-112.5 -43.5t-121 -12.5h-4q-19 -6 -42 -6.5t-44.5 4.5t-38 17t-21.5 32t-7.5 69t-3 112.5t-0.5 134t1.5 134t3 112.5t2.5 69v15t5 24t19 24.5t41 15.5q28 4 45.5 0t28.5 -13q46 6 92 -4
t84.5 -32.5t65.5 -55.5t36 -72.5t-4 -83t-55 -86.5zM213 459q31 3 52.5 16.5t32.5 32t11 38.5t-11 36.5t-34 26.5t-57 7q0 -9 1 -31t2 -46.5t2 -47t1 -32.5zM227 147q51 -1 83 10.5t47 29.5t12.5 39t-20 38t-50 26.5t-78.5 5.5q1 -13 2 -33.5t1.5 -42t1.5 -41.5t1 -32z" />
    <glyph glyph-name="C" unicode="C" horiz-adv-x="590" 
d="M410 277q8 20 25 28.5t36.5 6.5t39 -13.5t32.5 -30.5t17.5 -45t-5.5 -56q-29 -73 -89.5 -119.5t-137.5 -49.5q-51 -1 -93.5 16t-77.5 46.5t-61 68.5t-43 83.5t-25.5 90.5t-7.5 89q1 64 21.5 125t57.5 109.5t89 81t116 38.5q58 6 107.5 -11t84.5 -50t52.5 -78.5
t13.5 -96.5q-2 -25 -14.5 -41.5t-29 -25.5t-36 -10.5t-36 3t-27.5 15.5t-11 28q1 50 -24 72t-58 20q-41 -3 -68 -33t-41 -72.5t-14.5 -91.5t12.5 -90.5t38.5 -67.5t64.5 -24q27 2 52 22.5t40 62.5z" />
    <glyph glyph-name="D" unicode="D" 
d="M149 752q51 8 98 2.5t90 -23.5q61 -26 102.5 -72t64.5 -103.5t28.5 -122.5t-6 -128t-39.5 -120t-71 -99.5t-100 -65.5t-128 -18q-19 -7 -43 -9t-46.5 2.5t-39.5 16.5t-23 33t-9 58t-4 83.5t-1 99.5t1 106q1 52 2 101t2 88t2 64t1 31v15.5t5.5 24.5t19 24t41.5 14
q17 2 29.5 1t23.5 -3zM205 156q56 9 94 44.5t56.5 83.5t18.5 102t-19 99t-56.5 74.5t-93.5 29.5q-2 0 -2 -31t0.5 -78.5t1.5 -102.5t1.5 -103.5t0 -81.5t-1.5 -36z" />
    <glyph glyph-name="E" unicode="E" horiz-adv-x="456" 
d="M413 172q6 2 10 -8.5t6 -27.5t1.5 -38t-3.5 -40t-9 -33.5t-14 -18.5q-20 -8 -64 -8t-92 1q-11 0 -30.5 -0.5t-43 0t-48 3t-45.5 9t-36 17.5t-19 29q-5 20 -6.5 57t-1.5 82q-1 45 -0.5 95.5t1.5 100.5q1 51 1 98.5v85v62t1 29.5q0 28 8.5 44.5t23.5 25.5t36.5 12t47.5 4
q8 0 31.5 -0.5t54.5 -1.5t64.5 -2t62.5 -2t48.5 -1.5t22.5 0.5q6 1 10 -9.5t5 -27t0 -37t-4.5 -38.5t-10 -32t-15.5 -17q-20 -8 -47.5 -8t-56.5 3t-57.5 8t-50.5 8v-2q2 -29 4.5 -62.5t5.5 -70.5q17 2 47.5 3.5t59.5 3t50.5 2.5l21.5 1q8 2 12 -17.5t3.5 -45t-5.5 -49
t-16 -29.5q-16 -8 -37 -10.5t-43.5 -2t-44.5 3t-41 3.5q1 -45 1.5 -85.5t0.5 -75.5q21 2 55.5 4t67 3t55.5 1.5t22 0.5z" />
    <glyph glyph-name="G" unicode="G" horiz-adv-x="618" 
d="M575 378q7 3 12.5 -16.5t6.5 -46t-3 -50.5t-16 -30q-4 -2 -7.5 -3t-8.5 -2q-2 -58 -25 -102.5t-60 -74.5t-84 -43.5t-95 -10.5t-94 24.5t-81 62.5q-46 53 -71 125t-28 149q-3 73 14 143t54.5 125t95.5 88t138 32q45 -1 89.5 -17.5t79 -45.5t56 -70.5t21.5 -92.5
q0 -21 -18 -40.5t-42 -29t-47 -7t-32 24.5q-5 10 -8 17.5t-6 14t-7.5 13t-10.5 15.5q-23 30 -49.5 36t-52 -5.5t-46.5 -36.5t-32 -58q-10 -29 -13.5 -61.5t-1.5 -64.5q2 -31 9 -58t18 -48q16 -32 43 -49t55.5 -18t54.5 16t40 54q-13 2 -31 3.5t-34.5 2.5t-29 1.5t-14.5 1.5
q-17 6 -23 26.5t-3.5 43t11 40t19.5 17.5q1 -2 20 -2t47.5 0.5t61.5 1.5t61 2t47 2t20 1z" />
    <glyph glyph-name="I" unicode="I" horiz-adv-x="250" 
d="M224 679q-5 -55 -7.5 -117.5t-3 -126t0.5 -124t3 -111t5 -87.5t6 -52q3 -14 -8 -26t-29.5 -20.5t-41.5 -12t-44.5 0t-38.5 14.5t-23 33q-8 34 -11 88t-3.5 117t2 129.5t6.5 126.5t9 107t10 72q1 5 5 20t26 28q16 8 42.5 11t50.5 -2q34 -8 40 -24.5t4 -43.5z" />
    <glyph glyph-name="F" unicode="F" horiz-adv-x="501" 
d="M460 753q8 2 13 -10t7 -31t1 -42.5t-5 -44.5t-11.5 -37t-18.5 -21q-12 -5 -32.5 -7t-45.5 -2t-53.5 2t-56.5 4q-15 1 -28.5 1.5t-26.5 2.5q1 -35 2.5 -76.5t3.5 -85.5q20 1 58 4t74.5 5.5t64 4t26.5 1.5q9 3 14.5 -16.5t6 -45t-4.5 -49.5t-17 -30q-17 -7 -42.5 -9.5
t-55 -3.5t-61 0t-58.5 1q2 -53 5 -112t3 -114q2 -9 -4.5 -17t-18.5 -14t-27.5 -9.5t-32.5 -4.5q-34 -1 -64.5 11.5t-37.5 40.5q-8 36 -12 89.5t-5 115t1 125.5t4.5 122.5t6 105t5.5 73.5q0 4 1 15.5t8 24t21.5 22.5t42.5 11q32 0 50 -7q14 2 41.5 3t60 2t66.5 1h62.5h48
t21.5 1z" />
    <glyph glyph-name="J" unicode="J" horiz-adv-x="555" 
d="M502 674q10 -43 17.5 -96t10 -110t-1.5 -116t-17.5 -113t-39 -101t-64.5 -81q-32 -26 -71.5 -41t-80 -15t-80 16t-72.5 52q-28 30 -46 70t-27 84.5t-9 90.5t8 90q5 26 15 50q13 25 39.5 32.5t52.5 2.5t45.5 -19t17.5 -33q-4 -41 -8.5 -86.5t4.5 -96.5q10 -41 27 -57.5
t35.5 -12.5t35.5 26t27 58q10 41 13.5 82t2.5 83t-5 85t-8 87q-17 -4 -46 -7t-62 -4t-65.5 -0.5t-54.5 3.5q-11 2 -15 20.5t-2 44.5q2 25 10.5 48t23.5 28q11 4 30 5t42 1q49 0 99 1t102 5q20 2 38.5 1t33.5 -8.5t26.5 -24t18.5 -44.5z" />
    <glyph glyph-name="K" unicode="K" horiz-adv-x="572" 
d="M327 390q30 -29 61.5 -62.5t60.5 -71t53 -77.5t41 -81q10 -25 -1 -43q-11 -17 -35.5 -31t-51 -20.5t-49.5 -5t-30 15.5q-30 55 -69 111.5t-87 119.5q2 -38 4 -73t4.5 -62t4 -44t1.5 -19q3 -11 -7.5 -21.5t-29 -17.5t-41.5 -10t-45 0.5t-39 13.5t-23 30q-10 23 -15.5 75
t-7 118.5t0.5 140.5t5.5 140t9 117t11.5 73q5 16 19.5 31t50.5 15q15 0 31.5 -3t30 -11t22 -21t7.5 -32q0 -12 -0.5 -25t-0.5 -31v-42.5v-60.5q43 41 77 89t62 103q6 13 9 21.5t8.5 12.5t15.5 3t30 -6q22 -6 44 -13.5t39 -20t25.5 -31.5t2.5 -46q-9 -36 -31 -71t-49.5 -66.5
t-59 -60t-59.5 -50.5z" />
    <glyph glyph-name="L" unicode="L" horiz-adv-x="501" 
d="M462 204q8 1 13 -16t6 -42t-1 -53t-8 -48q-7 -26 -25.5 -31.5t-45.5 -7.5q-30 -3 -69 -4.5t-76 -2.5t-66.5 -1h-40.5q-27 0 -47 4t-34.5 14.5t-22.5 30t-11 50.5q-4 41 -4 100t1.5 123.5t4.5 129.5t6 118.5t5.5 89t3.5 42.5q0 4 1.5 11.5t8 16t21.5 15t42 8.5
q38 2 57.5 -8.5t27.5 -23.5q10 -15 9 -34l2 -180q0 -38 0.5 -80t1 -83.5t1.5 -82t2 -75.5q21 2 60.5 5.5t78.5 6.5q46 4 98 8z" />
    <glyph glyph-name="M" unicode="M" horiz-adv-x="774" 
d="M752 685q-22 -151 -18.5 -305t18.5 -309q2 -16 0 -27.5t-10 -20.5t-24.5 -15.5t-43.5 -10.5q-35 -5 -66.5 2.5t-41.5 37.5q-4 11 -7 35t-5 55.5t-3 66.5t-2 69.5t-1 64.5v50q-2 -6 -15.5 -26t-30 -43t-33 -43.5t-25.5 -28.5q-26 -22 -60 -20.5t-56 19.5
q-26 22 -56.5 63.5t-57.5 84.5q1 -58 1.5 -118.5t0 -110.5t-0.5 -82.5v-34.5q2 -13 -10.5 -22t-31.5 -14t-42.5 -5t-45 6t-37.5 18t-20 31q-5 19 -6 67.5t0 110.5t3.5 131.5t5 132t4 110.5t1.5 68q0 4 0.5 15t5.5 24t19 24t41 14q40 5 58.5 -2.5t30.5 -23.5q17 -23 42 -58
l52.5 -73.5t53.5 -75.5t44 -62q14 18 32 42.5t37.5 51t39 53.5t36.5 50t30 40.5t20 25.5q14 18 44.5 26.5t61 6t51.5 -18t17 -46.5z" />
    <glyph glyph-name="N" unicode="N" horiz-adv-x="669" 
d="M635 693q3 -17 5 -59.5t2.5 -98t0 -118.5t-1.5 -122.5t-2.5 -109t-3.5 -78.5q-1 -18 -3 -35t-9 -31.5t-20 -25t-37 -13.5q-27 -5 -47.5 -3t-35.5 9t-25.5 18.5t-18.5 25.5q-17 30 -43.5 74t-57.5 90.5t-63.5 91t-60.5 76.5q5 -75 9.5 -148t12.5 -149q2 -15 3 -23.5
t2 -10.5q3 -11 -7 -22t-28.5 -19t-41.5 -12t-44.5 -2t-39.5 11.5t-25 28.5q-14 37 -21 91t-10 115.5t-2 126t4 123.5t7 107t8 76q1 4 2 15.5t7.5 24t21 22t42.5 9.5q25 -1 42.5 -3.5t29 -7t19 -11.5t13.5 -19q59 -91 115 -182.5t120 -182.5q-2 35 -3 76t-1.5 81t-0.5 77v66
v46v17q-2 13 10.5 22t31.5 14t42.5 5.5t45 -5t37.5 -17.5t20 -31z" />
    <glyph glyph-name="O" unicode="O" horiz-adv-x="577" 
d="M292 743q65 1 114 -30t83 -82.5t51.5 -117.5t18.5 -135.5t-14.5 -136.5t-47.5 -120t-82 -86t-117 -35q-71 -2 -124 28.5t-88 82t-52 118t-16.5 136.5t18 137.5t52 120.5t85.5 86t119 34zM397 388q0 64 -15.5 105.5t-39 61t-51 18t-51.5 -24.5t-41 -66t-19 -106
q-3 -74 12.5 -122.5t39.5 -71.5t53 -21.5t54 27.5t41.5 76t16.5 124z" />
    <glyph glyph-name="P" unicode="P" 
d="M176 747q72 8 140 -10t120 -58.5t81 -102t22 -142.5q-5 -61 -32 -112t-70 -89.5t-98.5 -63.5t-116.5 -33q0 -37 0.5 -60t0.5 -26q2 -12 -9.5 -21.5t-30.5 -15t-42.5 -6t-44.5 4.5t-37.5 16.5t-20.5 30.5q-6 19 -8 66.5t-2.5 109.5t0.5 131t3 130.5t4 109t3 66.5
q0 4 0.5 15t6 23.5t19 23t41.5 13.5q17 3 29 1.5t23 -3.5q10 2 14 2h5zM219 321q52 0 89.5 20.5t58 50.5t23 65t-16 64t-59 47t-105.5 15q2 -62 4.5 -124.5t4.5 -128.5v-2q0 -1 0.5 -1.5t0.5 -1.5v-4z" />
    <glyph glyph-name="Q" unicode="Q" horiz-adv-x="576" 
d="M560 100q8 -5 -1.5 -23.5t-26.5 -38t-37.5 -33.5t-34.5 -9q-11 4 -26.5 17t-34.5 30q-57 -46 -129 -48q-66 -2 -114.5 28t-79.5 81t-45 117t-11.5 136t21.5 137.5t53.5 121.5t85 88.5t115.5 37.5q67 4 115.5 -24t79.5 -76.5t46 -112t14.5 -130t-15.5 -130t-42 -111.5
q27 -23 46 -40t21 -18zM302 561q-31 0 -56 -27t-40.5 -67.5t-21 -88.5t1 -90.5t27 -72.5t57.5 -35q-9 13 -16 21t-8 10t-4.5 6.5t-5 12t2.5 18.5t18 27q18 22 31.5 30t22.5 9q11 1 17 -6l17 -17l13.5 -13.5t11.5 -9.5q8 14 13.5 41t6 59.5t-3.5 66.5t-14.5 62t-27.5 46
t-42 18z" />
    <glyph glyph-name="R" unicode="R" horiz-adv-x="541" 
d="M152 745q64 3 132 -11q66 -13 114 -47t76.5 -80t36 -99.5t-7 -106.5t-52.5 -100.5t-101 -81.5q11 -15 28 -28.5t37.5 -25.5t43 -21.5t43.5 -14.5q15 -1 16.5 -21.5t-6 -44.5t-23 -44.5t-35.5 -21.5q-28 0 -60.5 14.5t-64.5 35.5t-61 44.5t-50 41.5q0 -18 0.5 -35
t0.5 -30.5v-22.5v-10q2 -12 -9.5 -21.5t-30.5 -15t-42 -6t-44.5 4.5t-38 16.5t-21.5 30.5q-6 19 -9 69t-3.5 114.5t-0.5 137t1.5 137.5t2.5 114.5t1 68.5q-1 21 9 34.5t27 21t40.5 8.5t50.5 -4zM202 593q5 -61 5 -129t3 -130q42 3 74 23t50 48.5t21.5 60.5t-11.5 60
t-50 46.5t-92 20.5z" />
    <glyph glyph-name="T" unicode="T" horiz-adv-x="552" 
d="M508 744q8 2 14 -10t9 -31t2.5 -42.5t-5 -44.5t-13.5 -37.5t-22 -20.5q-20 -7 -57 -7.5t-82 2.5q-1 -23 -1.5 -67.5t0.5 -98.5t2.5 -112.5t3.5 -107.5t4 -84t5 -42q3 -11 -8 -20.5t-29.5 -15.5t-42 -8.5t-45 1t-38.5 13t-23 26.5q-8 22 -12 62t-5.5 88.5t-0.5 103t4 106
t7 96t8 75.5q-47 6 -80 10t-39 6q-3 1 -10.5 1.5t-16 7t-15.5 20.5t-7 42q-2 38 5.5 57.5t16.5 27.5q11 10 25 9h35.5t82.5 -0.5t106 -1.5t106 -1.5t82 -1t34 -0.5z" />
    <glyph glyph-name="U" unicode="U" horiz-adv-x="673" 
d="M232 677q-14 -72 -27.5 -139.5t-10.5 -134.5q4 -75 25 -122.5t50 -69.5t62.5 -19.5t62.5 27t49 69t22 107.5q1 24 -3.5 59.5t-12 73t-16 72t-15.5 56.5q-6 17 -3.5 30.5t11.5 24.5t22.5 19.5t29.5 14.5q47 14 76 -0.5t45 -52.5q27 -71 40 -149.5t7.5 -155.5t-31 -149
t-75.5 -131q-39 -46 -91 -74.5t-115 -30.5q-67 -1 -121 28t-93 76.5t-62.5 106.5t-30.5 117q-6 48 -5 97t7 97t16 93.5t22 85.5q6 18 21.5 33t52.5 13q19 -2 37 -6t31.5 -12.5t20 -21.5t2.5 -32z" />
    <glyph glyph-name="V" unicode="V" horiz-adv-x="589" 
d="M394 699q11 34 27.5 45t57.5 7q18 -2 36.5 -7.5t33 -15t22.5 -22.5t6 -29q-5 -20 -16 -61t-27 -94t-34.5 -113t-37 -118.5t-36 -110.5t-30.5 -88q-8 -22 -17.5 -39t-23 -28.5t-32.5 -18t-46 -8.5q-28 -2 -49.5 6t-37.5 23.5t-27.5 37t-19.5 46.5q-18 58 -36.5 125
t-35 137.5t-30.5 141.5t-24 137q-1 4 -3 15t1 24.5t14 27t38 21.5q37 11 58 6t32 -16q12 -12 17 -31q12 -45 24 -96t25 -103.5t27 -103.5t30 -97q14 45 27.5 95.5t27 102.5t28 103.5t31.5 98.5z" />
    <glyph glyph-name="X" unicode="X" horiz-adv-x="572" 
d="M553 100q6 -8 4 -20t-10.5 -24.5t-21.5 -24.5t-28 -19q-30 -17 -62.5 -14.5t-52.5 27.5q-31 39 -56.5 84.5t-47.5 92.5q-21 -30 -40 -58t-33.5 -50.5t-24 -37.5t-12.5 -18l-9 -13.5t-19 -19t-29.5 -11.5t-42.5 9q-15 7 -28.5 19t-21.5 26t-8.5 30.5t10.5 33.5
q12 24 31.5 57.5t41.5 71t44.5 75t41.5 68.5q-24 43 -45.5 81.5t-38.5 69t-28 50t-14 23.5q-2 4 -8.5 15t-9 25.5t3 31.5t27.5 34q38 32 67 31.5t52 -32.5q9 -12 21 -30.5t25.5 -39.5t27.5 -43t27 -42q44 71 73.5 118.5t31.5 52.5q5 12 20.5 15t35 -2t40 -16t36 -27
t22.5 -35t0 -40q-6 -18 -20 -45t-33.5 -59.5t-43.5 -69t-49 -73.5q27 -46 52 -90t45 -80q25 -45 40 -74.5t17 -32.5z" />
    <glyph glyph-name="Y" unicode="Y" horiz-adv-x="633" 
d="M501 756q38 5 63.5 -5t39 -29.5t16.5 -46t-3 -54.5q-8 -37 -28 -89t-48.5 -111.5t-64.5 -122t-76.5 -119t-85.5 -103t-90 -73.5q-27 -16 -52.5 -7.5t-51.5 27.5q-15 11 -27 23.5t-17 27.5q-7 22 0 35.5t21 29.5q39 44 82 90t79 108v1q-8 14 -22 35t-31.5 45t-37 49
t-38.5 48q-17 20 -34.5 35t-32.5 28t-26 24t-14 23q-5 19 5.5 43.5t30.5 44.5t47.5 30t57.5 1t62 -39t59.5 -67.5t48.5 -75t30 -61.5q11 19 23.5 42.5t24.5 49.5t23 52.5t19 52.5q4 13 6.5 23t6.5 16.5t12 11t23 7.5z" />
    <glyph glyph-name="Z" unicode="Z" horiz-adv-x="564" 
d="M521 198q7 0 11.5 -7t6.5 -19t2 -27.5t-2 -31.5q-5 -35 -18 -64.5t-33 -35.5q-14 -5 -37.5 -5.5t-52.5 0.5t-61.5 2.5t-65.5 2.5q-32 1 -63 -0.5t-55.5 -4t-41 -5t-20.5 -2.5q-3 0 -10 1t-16.5 8t-19.5 21.5t-19 41.5q-12 39 -7.5 64t16.5 47q57 100 124 191.5t143 183.5
q-40 -1 -79 -2.5t-70.5 -3t-51.5 -2.5t-22 -2q-8 -2 -14.5 9.5t-10.5 30.5t-4.5 42.5t3 45t11.5 38t21 22.5q19 8 56.5 10.5t82 1.5t92 -4t88 -6.5t68 -6.5t32.5 -4q14 -2 26 -19t18 -40t4 -47.5t-14 -41.5q-2 -3 -3.5 -5.5t-2.5 -4.5t-2 -3l-16.5 -22t-41.5 -56.5
t-55.5 -76.5t-59.5 -83t-53 -75.5t-35 -52.5q3 0 5.5 0.5t4.5 0.5q30 1 62.5 1t64.5 -0.5t61.5 -2t53.5 -2.5z" />
    <glyph glyph-name="zero" unicode="0" 
d="M79 610q34 52 86 80t108.5 30t110.5 -22.5t92 -78.5q32 -45 48 -110t16 -136t-17.5 -140.5t-52.5 -123.5t-88 -86t-125 -27q-58 1 -101.5 29t-73.5 71.5t-46.5 96.5t-20.5 106q-3 39 -1 80.5t9 82t21 78.5t35 70zM186 409q-4 -14 -5.5 -38.5t0.5 -53t8 -58t17 -53
t26.5 -37.5t37.5 -12q26 3 44.5 32t28.5 71.5t11.5 90.5t-6.5 89.5t-25.5 68.5t-44.5 27q-22 0 -40.5 -21.5t-22.5 -66.5q-1 -12 -9 -22t-20 -17z" />
    <glyph glyph-name="one" unicode="1" horiz-adv-x="386" 
d="M372 621q0 -10 -1 -13t-1 -5q-12 -68 -21 -134t-14 -134.5t-6 -140t3 -150.5q-2 -13 -16 -22.5t-33.5 -15t-42 -6.5t-42.5 3t-34.5 14t-18.5 26q-8 34 -9.5 82.5t1.5 103.5t9 111t13 106q-6 -5 -11.5 -8t-10.5 -6l-33 -16.5t-22 -8t-15.5 3.5t-13.5 19q-7 15 -18.5 44.5
t-17.5 57.5q-5 24 1.5 40.5t20 28t32.5 20.5t39 19q35 18 68.5 36.5t63.5 44.5q14 10 35 2t41 -24t35.5 -36t18.5 -34v-8v0z" />
    <glyph glyph-name="two" unicode="2" 
d="M346 725q43 -5 78 -24.5t60 -48.5t37.5 -66t9.5 -77q-3 -42 -24.5 -86t-53 -85t-66.5 -78.5t-65 -65.5q18 1 41 1h48t49 -0.5t42 -0.5q6 1 10.5 -5.5t6.5 -18t2.5 -27.5t-0.5 -32q-2 -17 -5.5 -33.5t-8.5 -30.5t-12 -23.5t-15 -12.5q-6 -3 -20.5 -5t-31.5 -2.5l-34 -1
t-30 -0.5h-114h-56h-48.5t-36.5 -0.5t-18 -0.5q-2 0 -8 -1t-14.5 3.5t-17.5 17.5t-16 40q-11 36 -8.5 56.5t8.5 29.5q5 10 23 28.5t40 40.5q12 12 41.5 37t63 57t66 68t50.5 71q13 24 15.5 45.5t-5.5 34t-26.5 12.5t-47.5 -20q-26 -19 -36.5 -41t-21 -39.5t-28.5 -26.5
t-59 -2q-22 5 -40 17t-30 29t-16 38t4 44q13 45 46 82t77.5 61.5t95.5 36t99 5.5z" />
    <glyph glyph-name="three" unicode="3" horiz-adv-x="514" 
d="M70 8q-23 9 -34 27.5t-13 41t3 46t13.5 41.5t18 28.5t17.5 7.5q50 -21 105.5 -25.5t108.5 19.5q27 13 39 35t9 44.5t-20 40.5t-48 23q-14 2 -33 3.5t-44 -0.5q-14 -2 -29 8t-27 26.5t-20 37t-7 40.5q1 28 13 35.5t38 12.5q36 8 61 22t37 29t11.5 27.5t-15.5 17.5
t-45 -0.5t-76 -26.5q-34 -15 -57.5 -13t-45.5 41q-12 32 -11.5 52.5t11.5 28.5q43 33 102.5 48t118.5 13q73 -3 117 -32t58 -72t-4 -94t-69 -98q48 -14 79 -44t46 -68.5t14 -81.5t-16.5 -84t-44.5 -76t-70 -57q-35 -19 -73.5 -28t-77 -11t-74.5 2t-66 13z" />
    <glyph glyph-name="four" unicode="4" horiz-adv-x="616" 
d="M509 691q13 -2 30 -6.5t31 -13t21.5 -21.5t2.5 -31q-12 -67 -18 -148.5t-7.5 -161t1 -150t7.5 -115.5q1 -11 -10.5 -20.5t-30.5 -16t-42.5 -8.5t-44.5 1.5t-37.5 13.5t-22.5 29q-6 20 -9.5 55t-3.5 80v2q-26 2 -52.5 3t-54.5 2q-33 1 -64 1h-55.5t-40.5 -0.5t-20 -0.5
q-3 0 -10 -0.5t-16 4.5t-18 18.5t-15 41.5q-2 9 -4 23.5t-2.5 29.5t2 28.5t9.5 21.5q60 63 103.5 142.5t78.5 163.5q11 29 17 47t6 20q0 6 8 8.5t20 2t27.5 -3.5t31.5 -8q34 -11 53 -24t26.5 -29.5t5 -37t-11.5 -46.5q-22 -57 -52 -106.5t-62 -101.5q26 3 52 3.5t50 0.5
q5 47 11.5 90t12.5 77.5t11 56.5t6 27q1 4 3 14.5t10 21t23.5 17.5t43.5 4z" />
    <glyph glyph-name="five" unicode="5" horiz-adv-x="529" 
d="M330 480q62 -10 102 -44.5t58.5 -82t16 -102t-26 -104.5t-67.5 -89t-108 -56q-31 -8 -64.5 -10.5t-67 3t-65 20t-59.5 38.5q-16 13 -22 32t-4 39.5t9.5 39.5t18 31.5t22.5 16.5t22 -6q28 -27 64 -42.5t71 -13.5q36 1 60.5 16t38 37t15 47t-9 46.5t-33 36.5t-57.5 16
q-17 0 -35 -3t-36.5 -6t-37 -5t-36.5 1q-8 2 -16 3.5t-17 10.5q-21 26 -33.5 54.5t-7.5 64.5q1 15 2.5 39.5t3 51.5t2.5 54t2 47q0 25 9 37t23.5 16t33.5 3t39 -2q25 -2 63 -3.5t78.5 -1.5t77 3t58.5 11q14 5 24 -4t15.5 -26t6.5 -39.5t-2 -43.5q-5 -40 -23 -55t-56 -23
q-18 -3 -40.5 -5t-45 -2t-45 2.5t-40.5 7.5q0 -3 0.5 -10.5t0.5 -16v-16.5v-11q30 1 60.5 2t57.5 -4z" />
    <glyph glyph-name="six" unicode="6" horiz-adv-x="582" 
d="M280 472q34 4 67.5 3.5t64.5 -6.5t58 -18t47 -32q22 -22 33.5 -49.5t14 -58t-3.5 -62.5t-19 -62q-17 -41 -45.5 -75t-64 -59.5t-77 -39.5t-85.5 -14q-62 0 -111.5 24t-82.5 65t-48.5 95.5t-9.5 115.5q6 60 27 116t52.5 107.5t71.5 97.5t84 86q27 24 60 21.5t59.5 -18
t39 -38t-1.5 -38.5q-9 -10 -25.5 -30t-35.5 -43t-37.5 -47t-31.5 -41zM207 307q-20 -36 -21.5 -64t8.5 -47.5t29.5 -30t42.5 -11.5q27 -1 52 11t43.5 31t29 42t9 44t-16 36.5t-45.5 20.5q-32 5 -68.5 -5t-62.5 -27z" />
    <glyph glyph-name="seven" unicode="7" horiz-adv-x="522" 
d="M475 709q5 -7 10.5 -19.5t10.5 -27t8.5 -27.5t3.5 -21q0 -13 -4 -23q-2 -4 -5 -8q-72 -128 -130.5 -268.5t-85.5 -292.5q-3 -18 -28 -23.5t-57 -0.5q-16 3 -31.5 8.5t-28 14t-20 20.5t-8.5 27q1 56 18 120t43 127.5t57.5 123.5t60.5 108q-27 0 -57 -1.5t-61 -2t-62 0.5
t-59 7q-11 2 -18.5 6.5t-11 14t-4 25t3.5 38.5q6 34 14 54t22.5 30t37 12t57.5 -1q75 -9 147 -8t137 4q4 0 15.5 0.5t24.5 -17.5z" />
    <glyph glyph-name="eight" unicode="8" horiz-adv-x="618" 
d="M490 446q47 -30 71 -76.5t25.5 -98.5t-20 -102.5t-64.5 -89.5q-38 -34 -87.5 -54.5t-103.5 -24t-107 11t-96 50.5q-39 33 -60.5 76.5t-18.5 91t32 93.5t90 83q-38 33 -54 70.5t-13 74t22.5 70t51.5 59t74.5 41t92.5 15.5q63 0 112.5 -25t75 -66.5t22.5 -93.5t-45 -105z
M286 472q13 7 28 16.5t29 21t25 25t16 30.5q5 24 -13 34.5t-43.5 9.5t-49.5 -14t-31 -35q-5 -20 4 -43t35 -45zM422 234q2 28 -13.5 46.5t-39 28t-52 10t-54 -9t-44 -28t-21.5 -46.5t11 -46t37.5 -27t52.5 -8.5t54.5 9.5t45 27t23.5 44z" />
    <glyph glyph-name="nine" unicode="9" horiz-adv-x="551" 
d="M177 103q12 12 29 33t35 44.5t34 46.5t25 39q-67 -21 -119 -9t-87.5 45t-53.5 79t-17 93q2 57 21 106.5t58 86.5q35 33 84.5 50.5t102 17t101 -20t80.5 -61.5q30 -38 43.5 -89.5t13.5 -107.5q0 -57 -14.5 -114t-40 -110t-60.5 -102.5t-76 -91.5q-13 -13 -27.5 -24
t-31 -16t-34.5 -2.5t-37 16.5q-29 20 -39 45t10 46zM262 403q30 1 50.5 15.5t31 35.5t11.5 45.5t-7.5 45t-27 33.5t-46.5 13q-34 -1 -56.5 -15.5t-33.5 -35.5t-11.5 -46t9.5 -45.5t30 -33.5t50 -12z" />
    <glyph glyph-name="ampersand" unicode="&#x26;" horiz-adv-x="639" 
d="M591 172q11 -2 16.5 -8.5t8.5 -17.5q6 -23 2.5 -52.5t-22.5 -48.5q-11 -10 -27 -15.5t-37 -3.5q-19 4 -43.5 10t-53.5 18q-38 -26 -83.5 -42.5t-93.5 -19.5t-94 10t-84 48t-50.5 80.5t-6 93t29 93t55.5 80.5q-17 60 -8.5 122.5t39.5 113t83 81.5t124 28q31 -2 58.5 -12.5
t48.5 -28.5t34 -42.5t16 -54.5q4 -46 -13.5 -83.5t-45.5 -70.5t-61.5 -62t-60.5 -59q20 -21 41.5 -41t48.5 -38q20 23 36.5 47.5t35.5 48.5q10 20 36.5 22t51.5 -11q13 -7 23 -17.5t15.5 -23.5t5 -28.5t-8.5 -33.5q-6 -14 -16.5 -31.5t-25.5 -38.5l-3 -6q8 -2 17.5 -4
t11.5 -2zM328 557q21 21 22 34t-8.5 17t-26 -0.5t-30.5 -18.5q-21 -20 -28.5 -48.5t-9.5 -61.5q19 21 40 39.5t41 38.5zM179 256q-10 -28 -8 -54t16 -43t40.5 -21.5t64.5 10.5q-30 16 -60 46.5t-53 61.5z" />
    <glyph glyph-name="exclam" unicode="!" horiz-adv-x="241" 
d="M194 61q0 -29 -23.5 -51t-56.5 -22t-56.5 22t-23.5 51q0 32 23.5 52.5t56.5 20.5t56.5 -20.5t23.5 -52.5zM200 238q0 -15 -10 -26q-8 -10 -28 -17.5t-58 -6.5q-35 3 -50 15t-20 33q-6 29 -9.5 69t-5.5 85t-2 92t2 89.5t5 77.5t8 56q6 14 23 23t38.5 12.5t45 3t43 -4.5
t30.5 -10.5t9 -15.5q-1 -3 -2 -24.5t-2.5 -55.5t-3.5 -76.5t-4 -86.5q-4 -103 -9 -232z" />
    <glyph glyph-name="question" unicode="?" horiz-adv-x="497" 
d="M273 59q0 -29 -22 -50t-53 -21q-32 0 -54.5 21t-22.5 50q0 32 22.5 51.5t54.5 19.5q31 0 53 -19.5t22 -51.5zM247 446q20 22 33.5 42t20.5 43q5 25 -1.5 39t-19.5 17t-29.5 -5.5t-30.5 -29.5q-18 -26 -25 -63q-4 -18 -7.5 -31t-9.5 -22t-16.5 -14t-28.5 -7
q-26 -3 -47 5.5t-35 25t-20 39t-3 48.5q6 48 30.5 87t60.5 67t79.5 44t88.5 16q39 0 69.5 -10.5t54 -28.5t39 -42t23.5 -51q18 -60 2.5 -109t-49.5 -94q-22 -29 -46.5 -51.5t-46 -46t-37 -50.5t-19.5 -63q-2 -14 -12.5 -20t-25.5 -8q-37 -4 -64 7.5t-37 39.5q-10 30 -1 62
t27.5 62t41.5 56t41 46z" />
    <glyph glyph-name="parenleft" unicode="(" horiz-adv-x="345" 
d="M315 650q-46 -66 -77.5 -141t-38 -149.5t17.5 -144.5t89 -127q16 -14 14.5 -33.5t-18.5 -38.5q-20 -21 -42 -31t-44 -11.5t-42 5.5t-35 21q-46 43 -72.5 103t-36 128.5t-3 141.5t28 142.5t57 131.5t82.5 108q12 11 32.5 12.5t44.5 -12.5q13 -8 26.5 -17.5t21.5 -22
t8 -28.5t-13 -37z" />
    <glyph glyph-name="slash" unicode="/" horiz-adv-x="503" 
d="M476 664q-78 -174 -146.5 -347.5t-139.5 -347.5q-3 -14 -17.5 -20t-35 -5t-43 8t-40.5 20.5t-28.5 32t-6.5 41.5q1 24 20.5 78t49 122.5t65 144t68.5 142.5t59 118t37 70q3 4 9 16t18 23t30 15.5t44 -5.5q36 -13 49.5 -31t15.5 -35q2 -19 -8 -40z" />
    <glyph glyph-name="dollar" unicode="$" horiz-adv-x="413" 
d="M260 519q-24 15 -41 12.5t-22.5 -14.5t2.5 -30.5t34 -36.5q27 -17 54 -36.5t49 -43t36 -53.5t16 -68q1 -35 -8 -69t-27.5 -62.5t-45.5 -47t-60 -21.5q2 -23 3.5 -38.5t1.5 -16.5q2 -4 -11 -7.5t-30.5 -4t-33.5 1.5t-20 9q-3 7 -5.5 20.5t-1.5 30.5q-29 4 -52 19
t-38.5 37.5t-24 50.5t-9.5 58q-1 23 15 38.5t35.5 23t37.5 5t22 -15.5q3 -16 7 -33t11.5 -31t19 -22.5t27.5 -6.5q14 1 24 10t14 22t0.5 28t-17.5 27q-21 19 -46 35t-48.5 33.5t-44 38.5t-32.5 49q-14 30 -15.5 62t11.5 63t41 58t75 46v102q0 2 15 3t33.5 -1t34 -9t15.5 -21
q1 -14 -1.5 -34t-3.5 -34q63 -14 89.5 -37.5t32 -48t-3.5 -45.5t-18 -29q-17 -17 -34 -19t-20 3q-18 35 -42 50z" />
    <glyph glyph-name="period" unicode="." horiz-adv-x="192" 
d="M166 81q0 -29 -20.5 -49.5t-49.5 -20.5t-49 20.5t-20 49.5q0 28 20 48t49 20t49.5 -20t20.5 -48z" />
    <glyph glyph-name="comma" unicode="," horiz-adv-x="207" 
d="M53 111q6 21 14 29t23 7q8 -1 22.5 -3.5t28.5 -7t25 -10.5t13 -15t-9.5 -34t-27.5 -52t-32 -48.5t-23 -23.5q-8 -2 -21.5 -2.5t-26 1t-21 6t-6.5 12.5t8.5 31t14.5 48q8 28 18 62z" />
    <glyph glyph-name="hyphen" unicode="-" horiz-adv-x="514" 
d="M71 357q102 6 184 10q35 2 68.5 4t60 3.5t43.5 3t19 1.5q11 3 18.5 -16t9.5 -44.5t-4 -49.5t-22 -31q-17 -6 -49.5 -9t-72 -4t-81 0t-77 2.5t-60 2.5t-28.5 2q-2 0 -8.5 0.5t-14 5t-14 14.5t-8.5 31q-2 29 3 43.5t13 21.5q9 8 20 9z" />
    <glyph glyph-name="plus" unicode="+" horiz-adv-x="640" 
d="M572 396q14 3 24 -17t12 -45.5t-6 -49.5t-30 -30q-24 -8 -72.5 -10t-108.5 -2q2 -31 4 -58t3.5 -47t3 -32.5t1.5 -13.5q4 -12 -15 -22.5t-44.5 -13.5t-50 3t-31.5 26q-8 21 -11.5 64t-3.5 95q-61 2 -105 3.5t-52 2.5q-3 0 -11.5 0.5t-18 5t-18 15.5t-10.5 32q-2 29 5 43
t17 21q11 7 26 8q24 1 51 2q23 1 54.5 1.5t66.5 2.5q5 60 11 103t8 50q0 2 1 10t6.5 16.5t16.5 15t32 5.5q11 -1 24 -2t23.5 -5.5t17 -14.5t4.5 -28q-5 -33 -5 -67.5t-1 -76.5q36 1 68 3t56.5 3.5t40 2.5t17.5 1z" />
    <glyph glyph-name="equal" unicode="=" horiz-adv-x="511" 
d="M71 250q103 6 185 11q35 2 68.5 4.5t60.5 4t44 3t19 2.5q10 3 17.5 -16t9.5 -44.5t-4 -49.5t-22 -31q-17 -6 -49.5 -9.5t-72 -4.5t-81.5 -0.5t-77.5 2t-60 3t-28.5 2.5h-8.5t-14 4.5t-14 15t-8.5 31.5q-2 29 3 44t13 21q9 7 20 7zM71 468q103 5 185 10q35 2 68.5 4
t60.5 4t44 3.5t19 2.5q10 3 17.5 -16.5t9.5 -45.5t-4 -50t-22 -30q-17 -6 -49.5 -9.5t-72 -4.5t-81.5 0t-77.5 2.5t-60 3t-28.5 2.5q-2 0 -8.5 0.5t-14 4.5t-14 14.5t-8.5 31.5q-2 29 3 43.5t13 21.5q9 8 20 8z" />
    <glyph glyph-name="parenright" unicode=")" horiz-adv-x="360" 
d="M37 84q46 66 77.5 141t38 149.5t-17.5 144.5t-89 127q-16 14 -14.5 33.5t18.5 38.5q19 21 41.5 31t44.5 11.5t42 -5.5t35 -21q46 -43 72.5 -103t36 -128.5t3 -141.5t-28 -142.5t-57 -131.5t-82.5 -108q-12 -11 -32.5 -12.5t-44.5 12.5q-13 8 -26.5 17.5t-21.5 22
t-8.5 28.5t13.5 37z" />
    <glyph glyph-name="colon" unicode=":" horiz-adv-x="195" 
d="M166 101q0 -29 -20.5 -49.5t-49.5 -20.5t-49 20.5t-20 49.5q0 28 20 48t49 20t49.5 -20t20.5 -48zM166 468q0 -29 -20.5 -49.5t-49.5 -20.5t-49 20.5t-20 49.5q0 28 20 48t49 20t49.5 -20t20.5 -48z" />
    <glyph glyph-name="percent" unicode="%" horiz-adv-x="621" 
d="M520 637q-75 -154 -142.5 -307t-136.5 -308q-3 -12 -17 -17.5t-34 -4.5t-41.5 7.5t-39 18.5t-28 28t-6.5 37q1 21 20 68.5t47.5 108t63 127t67 126t57.5 104.5t36 62q3 3 9 14t17 20.5t28.5 13.5t43.5 -5q35 -11 48.5 -27.5t15.5 -30.5q2 -18 -8 -35zM142 737
q41 1 68.5 -15.5t41 -42.5t13.5 -57t-13.5 -58.5t-40 -47.5t-65.5 -23q-41 -3 -68.5 14t-40.5 44t-13 59.5t13.5 60.5t39.5 47t65 19zM172 617q3 20 -6 29.5t-20.5 9.5t-21.5 -10t-10 -30q0 -18 8.5 -26t19 -7.5t19.5 9.5t11 25zM474 262q41 1 68.5 -15.5t41 -42.5t13.5 -57
t-13.5 -58.5t-40 -47.5t-65.5 -23q-41 -3 -68.5 14t-40.5 44t-13 59.5t13.5 60.5t39.5 47t65 19zM504 142q3 20 -6 29.5t-20.5 9.5t-21.5 -10t-10 -30q0 -18 8.5 -26t19 -7.5t19.5 9.5t11 25z" />
    <glyph glyph-name="quotesingle" unicode="'" horiz-adv-x="171" 
d="M24 707q2 22 7.5 31t20.5 12q8 1 22.5 2t29.5 0t27.5 -4.5t15.5 -11.5q4 -9 0.5 -30.5t-10.5 -46t-15 -47.5t-13 -35q-5 -9 -11 -16.5t-17 -12.5q-5 -2 -13.5 -4t-17.5 -2.5t-17 1.5t-12 8q-5 6 -3 28q1 16 2 38t2 42z" />
    <glyph glyph-name="quotedbl" unicode="&#x22;" horiz-adv-x="336" 
d="M24 707q2 22 7.5 31t20.5 12q8 1 22.5 2t29.5 0t27.5 -4.5t15.5 -11.5q4 -9 0.5 -30.5t-10.5 -46t-15 -47.5t-13 -35q-5 -9 -11 -16.5t-17 -12.5q-5 -2 -13.5 -4t-17.5 -2.5t-17 1.5t-12 8q-5 6 -3 28q1 16 2 38t2 42zM192 707q2 22 7.5 31t20.5 12q8 1 22.5 2t29.5 0
t27.5 -4.5t15.5 -11.5q4 -9 0.5 -30.5t-10.5 -46t-15 -47.5t-13 -35q-5 -9 -11 -16.5t-17 -12.5q-5 -2 -13.5 -4t-17.5 -2.5t-17 1.5t-12 8q-5 6 -3 28q1 16 2 38t2 42z" />
    <glyph glyph-name="H" unicode="H" horiz-adv-x="594" 
d="M557 570q-9 -100 -10.5 -201.5t7.5 -205.5q3 -43 7 -75t5 -35q6 -17 -18 -31t-58 -20q-34 -5 -66 2.5t-43 36.5q-17 41 -20.5 91.5t-4.5 97.5q-33 -2 -66 -1.5t-67 2.5q1 -20 2.5 -38.5t3.5 -35.5q4 -45 7 -72.5t5 -30.5q5 -17 -19 -32.5t-59 -20.5q-16 -3 -33 -3
t-31.5 4.5t-26 13.5t-17.5 23q-8 22 -14 59.5t-10 85.5q-8 125 2 250.5t39 249.5q1 4 3 15.5t10 23.5t23.5 20.5t42.5 5.5q38 -3 56 -15.5t25 -26.5q3 -7 4 -13t1 -11q0 -6 -1 -11q-1 -12 -3 -26q-3 -26 -6 -69q-3 -34 -5.5 -76t-3.5 -87q13 1 25 2t23 2q26 2 51 3.5t46 3.5
q4 48 10.5 91t12 76.5t10 55t6.5 26.5q1 4 3.5 16t10.5 23.5t23.5 19.5t42.5 5q39 -4 56.5 -16t23.5 -26q3 -7 4 -13t1 -11t-1 -10q-1 -11 -3 -25q-2 -12 -3 -29.5t-3 -37.5z" />
    <glyph glyph-name="a" unicode="a" horiz-adv-x="616" 
d="M588 480q-11 -85 -19 -176.5t2 -181.5q2 -30 5 -48t4 -20q3 -5 -2.5 -11t-16.5 -11t-26 -10t-31 -8q-35 -6 -66.5 -2.5t-42.5 24.5q-2 3 -3 6t-3 8q-41 -27 -89 -33t-94 6t-85.5 41.5t-63.5 75.5q-28 55 -25 119t30 124.5t75 110.5t111 77q27 11 67.5 19t81.5 6t77 -16.5
t53 -47.5q26 -5 39 -14t18 -17q5 -10 4 -21zM406 435q-30 0 -59 -8t-54 -24t-43.5 -41t-27.5 -58q-9 -36 2.5 -61.5t34.5 -32t52.5 10t56.5 64.5q17 32 24.5 69t16.5 80q-2 0 -3 1z" />
    <glyph glyph-name="p" unicode="p" horiz-adv-x="563" 
d="M175 581q46 8 91 5.5t91 -22.5q71 -29 113 -79.5t56.5 -108.5t2 -118.5t-50 -110t-100 -83t-147.5 -37.5q2 -69 3 -115.5t2 -50.5q2 -13 -9.5 -23t-30.5 -16.5t-42.5 -7.5t-44.5 3.5t-37.5 16.5t-21.5 32t-8 70t-5 115t-2.5 137.5t-0.5 137.5t0.5 115t0.5 70v15.5t5 25
t18.5 25.5t40.5 17q29 5 46.5 0.5t29.5 -13.5zM223 198q35 0 61.5 14t40.5 35t16 45.5t-11 45.5t-42.5 35t-76.5 15q3 -46 6.5 -92.5t5.5 -97.5z" />
    </font>
</defs>
</svg>
