<svg xmlns="http://www.w3.org/2000/svg" width="117" height="34" viewBox="0 0 117 34">
  <defs>
    <style>
      .cls-1 {
        fill: #fff;
      }

      .cls-2 {
        fill: #0a336a;
      }

      .cls-3 {
        fill: none;
        stroke: #0a336a;
        stroke-linecap: round;
        stroke-linejoin: round;
        stroke-width: 2px;
      }
    </style>
  </defs>
  <g id="Groupe_1513" data-name="Groupe 1513" transform="translate(-0.22 0.079)">
    <rect id="Rectangle_284" data-name="Rectangle 284" class="cls-1" width="34" height="34" rx="8" transform="translate(0.22 -0.079)"/>
    <rect id="Rectangle_285" data-name="Rectangle 285" class="cls-1" width="34" height="34" rx="8" transform="translate(41.22 -0.079)"/>
    <rect id="Rectangle_286" data-name="Rectangle 286" class="cls-1" width="35" height="34" rx="8" transform="translate(82.22 -0.079)"/>
    <path id="Icon_awesome-linkedin-in" data-name="Icon awesome-linkedin-in" class="cls-2" d="M3.519,15.723H.26V5.226h3.26ZM1.888,3.794A1.9,1.9,0,1,1,3.776,1.888,1.9,1.9,0,0,1,1.888,3.794ZM15.719,15.723H12.467v-5.11c0-1.218-.025-2.78-1.695-2.78-1.695,0-1.954,1.323-1.954,2.692v5.2H5.561V5.226H8.688V6.658h.046a3.425,3.425,0,0,1,3.084-1.7c3.3,0,3.905,2.172,3.905,4.994v5.766Z" transform="translate(9.106 8.842)"/>
    <g id="Icon_feather-instagram" data-name="Icon feather-instagram" transform="translate(50.755 9.591)">
      <path id="Tracé_2917" data-name="Tracé 2917" class="cls-3" d="M6.744,3h7.487a3.744,3.744,0,0,1,3.744,3.744v7.487a3.744,3.744,0,0,1-3.744,3.744H6.744A3.744,3.744,0,0,1,3,14.231V6.744A3.744,3.744,0,0,1,6.744,3Z" transform="translate(-3 -3)"/>
      <path id="Tracé_2918" data-name="Tracé 2918" class="cls-3" d="M18.022,14.49A2.995,2.995,0,1,1,15.5,11.967a2.995,2.995,0,0,1,2.523,2.523Z" transform="translate(-7.54 -7.475)"/>
      <path id="Tracé_2919" data-name="Tracé 2919" class="cls-3" d="M26.25,9.75h0" transform="translate(-14.645 -6.381)"/>
    </g>
    <path id="Icon_awesome-facebook-f" data-name="Icon awesome-facebook-f" class="cls-2" d="M10.6,10.108l.5-3.252H7.981V4.745A1.626,1.626,0,0,1,9.815,2.988h1.419V.22A17.3,17.3,0,0,0,8.715,0C6.146,0,4.466,1.558,4.466,4.377V6.856H1.609v3.252H4.466v7.861H7.981V10.108Z" transform="translate(93.094 7.72)"/>
  </g>
</svg>
