<svg xmlns="http://www.w3.org/2000/svg" width="17.132" height="17.133" viewBox="0 0 17.132 17.133">
  <defs>
    <style>
      .cls-1 {
        fill: #3362a2;
      }
    </style>
  </defs>
  <path id="bx-search-alt-2" class="cls-1" d="M18.3,16.462q-.631-.6-1.228-1.244c-.334-.34-.536-.587-.536-.587l-2.517-1.2a6.307,6.307,0,1,0-.591.592l1.2,2.517s.247.2.587.536.805.768,1.244,1.228l1.221,1.251.543.581,1.906-1.906-.581-.543c-.341-.334-.8-.778-1.251-1.222Zm-9.01-2.676a4.494,4.494,0,1,1,4.494-4.494A4.5,4.5,0,0,1,9.292,13.786Z" transform="translate(-3 -3)"/>
</svg>
