<svg xmlns="http://www.w3.org/2000/svg" width="15.694" height="12.785" viewBox="0 0 15.694 12.785">
  <defs>
    <style>
      .cls-1 {
        fill: #0a336a;
      }
    </style>
  </defs>
  <path id="Tracé_2935" data-name="Tracé 2935" class="cls-1" d="M113.985,16.946a5.721,5.721,0,0,1,1.328-2.537,6.843,6.843,0,0,1,2.468-1.734,6.389,6.389,0,0,1,1.952-.585v2.18a4.429,4.429,0,0,0-2.507,1.586,5.85,5.85,0,0,0-.922,3.112h3.429v5.907h-6.105V19.761A11.9,11.9,0,0,1,113.985,16.946Zm-9.589,0a5.721,5.721,0,0,1,1.328-2.537,6.843,6.843,0,0,1,2.468-1.734,6.389,6.389,0,0,1,1.952-.585v2.18a4.429,4.429,0,0,0-2.507,1.586,5.85,5.85,0,0,0-.922,3.112h3.429v5.907h-6.105V19.761A11.906,11.906,0,0,1,104.4,16.946Z" transform="translate(-104.039 -12.09)"/>
</svg>
