<svg xmlns="http://www.w3.org/2000/svg" width="14.258" height="16.451" viewBox="0 0 14.258 16.451">
  <defs>
    <style>
      .cls-1 {
        fill: #fff;
      }
    </style>
  </defs>
  <g id="user-solid" transform="translate(-5 -3)">
    <path id="Tracé_13" data-name="Tracé 13" class="cls-1" d="M19.044,22.026a9.41,9.41,0,0,0-13.83,0A.828.828,0,0,0,5,22.575v3.29a.823.823,0,0,0,.823.812H18.435a.823.823,0,0,0,.823-.823v-3.29A.828.828,0,0,0,19.044,22.026Z" transform="translate(0 -7.225)"/>
    <path id="Tracé_14" data-name="Tracé 14" class="cls-1" d="M18.677,6.839A3.839,3.839,0,1,1,14.839,3a3.839,3.839,0,0,1,3.839,3.839Z" transform="translate(-2.71)"/>
  </g>
</svg>
